<svg version="1.1" xmlns="http://www.w3.org/2000/svg" xmlns:xlink="http://www.w3.org/1999/xlink" width="14" height="14" viewBox="0 0 14 14">
<path d="M8.25 6.5q0 0.203 0.148 0.352t0.352 0.148 0.352-0.148 0.148-0.352q0-1.141-0.805-1.945t-1.945-0.805-1.945 0.805-0.805 1.945q0 0.203 0.148 0.352t0.352 0.148 0.352-0.148 0.148-0.352q0-0.727 0.516-1.238t1.234-0.512 1.234 0.512 0.516 1.238zM6.523 2q-0.914 0-1.746 0.355t-1.438 0.961-0.961 1.438-0.355 1.746q0 0.203 0.148 0.352t0.352 0.148 0.352-0.148 0.148-0.352q0-1.445 1.027-2.473t2.473-1.027 2.473 1.027 1.027 2.473q0 0.43-0.141 0.809t-0.293 0.582-0.465 0.563q-0.266 0.305-0.406 0.492t-0.34 0.52-0.289 0.711-0.090 0.824q0 0.828-0.586 1.414t-1.414 0.586q-0.203 0-0.352 0.148t-0.148 0.352 0.148 0.352 0.352 0.148q1.242 0 2.121-0.879t0.879-2.121q0-0.32 0.059-0.578t0.207-0.5 0.262-0.391 0.355-0.422q0.273-0.32 0.414-0.504t0.344-0.527 0.293-0.73 0.090-0.848q0-0.914-0.355-1.746t-0.961-1.438-1.438-0.961-1.746-0.355zM4.617 7.617l1.766 1.766-4.523 4.523q-0.094 0.094-0.227 0.094t-0.227-0.094l-1.313-1.313q-0.094-0.094-0.094-0.227t0.094-0.227zM12.594 0.094l1.313 1.313q0.094 0.094 0.094 0.227t-0.094 0.234l-1.82 1.82-0.203 0.195-0.555 0.555q-0.516-1.195-1.523-2.016l2.328-2.328q0.102-0.094 0.234-0.094t0.227 0.094z"></path>
</svg>
