<svg version="1.1" xmlns="http://www.w3.org/2000/svg" xmlns:xlink="http://www.w3.org/1999/xlink" width="14" height="14" viewBox="0 0 14 14">
<path d="M7 6.375q-0.813-1.531-1.25-2.172-1.086-1.578-2.711-2.484-0.266-0.148-0.547-0.281-0.695-0.312-0.734-0.25t0.266 0.297l0.305 0.242q0.484 0.336 0.879 0.73t0.738 0.91 0.551 0.883 0.551 1.023q0.070 0.133 0.102 0.195 0.344 0.656 0.656 1.195t0.766 1.203 0.902 1.172 1.023 0.965 1.16 0.707q1.195 0.516 1.203 0.469 0.008-0.023-0.383-0.289-0.414-0.281-0.633-0.445-0.602-0.453-1.398-1.648t-1.445-2.422zM4.289 10.617q-0.594-0.469-1.035-0.977t-0.766-1.121-0.555-1.207-0.457-1.453-0.406-1.633-0.473-1.969-0.598-2.258q2.133 0 3.887 0.281t2.961 0.719 2.117 1.129 1.449 1.348 0.859 1.551 0.438 1.559 0.098 1.551-0.074 1.352-0.156 1.121-0.102 0.836l2.523 2.555h-0.813l-2.195-2.227q-0.172 0.016-0.715 0.109t-0.949 0.148-1.078 0.047-1.254-0.133-1.309-0.461-1.398-0.867z"></path>
</svg>
