<svg version="1.1" xmlns="http://www.w3.org/2000/svg" xmlns:xlink="http://www.w3.org/1999/xlink" width="12" height="14" viewBox="0 0 12 14">
<path d="M12 4v6.555q0 0.375-0.383 0.484-1.359 0.406-2.641 0.406-0.57 0-1.684-0.23t-1.777-0.23q-1.281 0-2.891 0.375v2.641h-1.25v-10.687q-0.492-0.195-0.789-0.633t-0.297-0.969q0-0.711 0.5-1.211t1.211-0.5 1.211 0.5 0.5 1.211q0 0.531-0.297 0.969t-0.789 0.633v0.531q1.484-0.344 2.68-0.344 0.773 0 1.547 0.117 0.109 0.016 0.871 0.176t1.168 0.16q0.602 0 1.289-0.141 0.086-0.016 0.625-0.164t0.695-0.148q0.203 0 0.352 0.148t0.148 0.352z"></path>
</svg>
