<svg version="1.1" xmlns="http://www.w3.org/2000/svg" xmlns:xlink="http://www.w3.org/1999/xlink" width="12" height="14" viewBox="0 0 12 14">
<path d="M4.055 9.375q0.031-0.047-0.023-0.102-0.070-0.055-0.109-0.016-0.031 0.047 0.023 0.102 0.070 0.055 0.109 0.016zM3.836 9.055q-0.039-0.055-0.094-0.031-0.047 0.031 0 0.094 0.055 0.062 0.094 0.039 0.047-0.031 0-0.102zM3.516 8.742q0.016-0.031-0.039-0.062-0.055-0.016-0.062 0.016-0.023 0.039 0.031 0.062 0.062 0.016 0.070-0.016zM3.68 8.922q0.016-0.008 0.012-0.035t-0.027-0.043q-0.047-0.055-0.078-0.023t0.008 0.086q0.047 0.047 0.086 0.016zM4.352 9.508q0.016-0.055-0.070-0.086-0.070-0.023-0.102 0.031-0.016 0.055 0.070 0.086 0.070 0.023 0.102-0.031zM4.68 9.531q0-0.062-0.094-0.062-0.078 0-0.078 0.062t0.086 0.062 0.086-0.062zM4.984 9.477q-0.016-0.055-0.102-0.039t-0.070 0.070q0.016 0.062 0.094 0.047t0.078-0.078zM10 7q0-1.656-1.172-2.828t-2.828-1.172-2.828 1.172-1.172 2.828q0 1.305 0.766 2.348t1.969 1.449q0.141 0.023 0.207-0.039t0.066-0.156q0-0.406-0.008-0.742-0.047 0.008-0.121 0.020t-0.277 0.016-0.375-0.031-0.34-0.156-0.23-0.324q-0.18-0.461-0.445-0.578-0.016-0.008-0.035-0.027l-0.062-0.062t-0.055-0.074 0.031-0.059 0.152-0.027q0.047 0 0.117 0.016t0.234 0.121 0.258 0.277q0.125 0.219 0.293 0.328t0.34 0.109 0.297-0.027 0.234-0.074q0.055-0.367 0.258-0.539-0.383-0.047-0.672-0.145t-0.57-0.305-0.434-0.594-0.152-0.934q0-0.617 0.414-1.070-0.187-0.484 0.039-1.062 0.148-0.047 0.426 0.059t0.473 0.23l0.203 0.125q0.453-0.133 1-0.133t1 0.133q0.086-0.055 0.223-0.141t0.434-0.203 0.445-0.070q0.227 0.578 0.039 1.062 0.414 0.453 0.414 1.070 0 0.445-0.109 0.785t-0.277 0.547-0.418 0.348-0.488 0.203-0.535 0.094q0.273 0.242 0.273 0.742 0 0.312-0.004 0.695t-0.004 0.398q0 0.094 0.066 0.156t0.207 0.039q1.203-0.406 1.969-1.449t0.766-2.348zM12 3.25v7.5q0 0.93-0.66 1.59t-1.59 0.66h-7.5q-0.93 0-1.59-0.66t-0.66-1.59v-7.5q0-0.93 0.66-1.59t1.59-0.66h7.5q0.93 0 1.59 0.66t0.66 1.59z"></path>
</svg>
