<svg version="1.1" xmlns="http://www.w3.org/2000/svg" xmlns:xlink="http://www.w3.org/1999/xlink" width="14" height="14" viewBox="0 0 14 14">
<path d="M14 6.609q0 0.453-0.23 0.824t-0.621 0.566q0.094 0.359 0.094 0.75 0 1.211-0.832 2.242t-2.27 1.629-3.125 0.598-3.121-0.598-2.266-1.629-0.832-2.242q0-0.367 0.086-0.734-0.398-0.195-0.641-0.574t-0.242-0.832q0-0.641 0.453-1.098t1.102-0.457q0.664 0 1.133 0.492 1.703-1.187 4.023-1.266l0.906-4.070q0.023-0.102 0.117-0.164t0.203-0.039l2.883 0.633q0.141-0.289 0.422-0.465t0.617-0.176q0.484 0 0.828 0.34t0.344 0.824-0.344 0.828-0.828 0.344-0.824-0.34-0.34-0.824l-2.609-0.578-0.813 3.687q2.344 0.070 4.055 1.25 0.453-0.477 1.117-0.477 0.648 0 1.102 0.457t0.453 1.098zM3.266 8.164q0 0.484 0.34 0.828t0.824 0.344 0.828-0.344 0.344-0.828-0.344-0.824-0.828-0.34q-0.477 0-0.82 0.344t-0.344 0.82zM9.594 10.938q0.086-0.086 0.086-0.203t-0.086-0.203q-0.078-0.078-0.195-0.078t-0.203 0.078q-0.32 0.328-0.945 0.484t-1.25 0.156-1.25-0.156-0.945-0.484q-0.086-0.078-0.203-0.078t-0.195 0.078q-0.086 0.078-0.086 0.199t0.086 0.207q0.336 0.336 0.926 0.531t0.957 0.23 0.711 0.035 0.711-0.035 0.957-0.23 0.926-0.531zM9.57 9.336q0.484 0 0.824-0.344t0.34-0.828q0-0.477-0.344-0.82t-0.82-0.344q-0.484 0-0.828 0.34t-0.344 0.824 0.344 0.828 0.828 0.344z"></path>
</svg>
