<svg version="1.1" xmlns="http://www.w3.org/2000/svg" xmlns:xlink="http://www.w3.org/1999/xlink" width="18" height="14" viewBox="0 0 18 14">
<path d="M17.875 6.289q0.125 0.062 0.125 0.211t-0.125 0.211l-2.5 1.5q-0.062 0.039-0.125 0.039-0.070 0-0.125-0.031-0.125-0.078-0.125-0.219v-1h-6.703q0.289 0.453 0.648 1.289 0.125 0.289 0.191 0.43t0.187 0.383 0.211 0.367 0.211 0.266 0.246 0.203 0.258 0.062h0.75v-0.75q0-0.109 0.070-0.18t0.18-0.070h2.5q0.109 0 0.18 0.070t0.070 0.18v2.5q0 0.109-0.070 0.18t-0.18 0.070h-2.5q-0.109 0-0.18-0.070t-0.070-0.18v-0.75h-0.75q-0.25 0-0.477-0.078t-0.398-0.184-0.352-0.316-0.289-0.359-0.262-0.445-0.223-0.449-0.219-0.473q-0.18-0.414-0.289-0.637t-0.281-0.508-0.348-0.418-0.363-0.133h-2.812q-0.172 0.656-0.711 1.078t-1.227 0.422q-0.828 0-1.414-0.586t-0.586-1.414 0.586-1.414 1.414-0.586q0.688 0 1.227 0.422t0.711 1.078h0.813q0.187 0 0.363-0.133t0.348-0.418 0.281-0.508 0.289-0.637q0.148-0.32 0.219-0.473t0.223-0.449 0.262-0.445 0.289-0.359 0.352-0.316 0.398-0.184 0.477-0.078h0.836q0.164-0.445 0.547-0.723t0.867-0.277q0.625 0 1.062 0.438t0.438 1.062-0.438 1.062-1.062 0.438q-0.484 0-0.867-0.277t-0.547-0.723h-0.836q-0.133 0-0.258 0.062t-0.246 0.203-0.211 0.266-0.211 0.367-0.187 0.383-0.191 0.43q-0.359 0.836-0.648 1.289h8.703v-1q0-0.141 0.125-0.219t0.25 0.008z"></path>
</svg>
