<svg version="1.1" xmlns="http://www.w3.org/2000/svg" xmlns:xlink="http://www.w3.org/1999/xlink" width="14" height="14" viewBox="0 0 14 14">
<path d="M3 6.5h1.25v-1.75h-1.25v1.75zM9.539 9.094v-0.719q-0.813 0.281-1.898 0.297-1.055 0.008-2.027-0.363t-1.723-0.957l0.008 0.75q0.688 0.625 1.656 1.004t2.125 0.371q1.008 0 1.859-0.383zM5 6.5h5v-1.75h-5v1.75zM14 6.25q0 1.461-0.773 2.75 0.695 0.797 0.695 1.789 0 1.227-1.012 2.094t-2.449 0.867q-0.953 0-1.758-0.41t-1.258-1.098q-0.148 0.008-0.445 0.008t-0.445-0.008q-0.453 0.688-1.258 1.098t-1.758 0.41q-1.438 0-2.449-0.867t-1.012-2.094q0-0.992 0.695-1.789-0.773-1.289-0.773-2.75 0-1.633 0.937-3.012t2.551-2.184 3.512-0.805 3.512 0.805 2.551 2.184 0.937 3.012z"></path>
</svg>
