<svg version="1.1" xmlns="http://www.w3.org/2000/svg" xmlns:xlink="http://www.w3.org/1999/xlink" width="13" height="14" viewBox="0 0 13 14">
<path d="M2.648 1.703h5.398l-0.203 0.563h-5.195q-0.859 0-1.473 0.617t-0.613 1.477v6.023q0 0.742 0.473 1.324t1.199 0.73q0.18 0.039 0.766 0.039v0.563h-0.352q-1.094 0-1.871-0.781t-0.777-1.875v-6.023q0-1.094 0.777-1.875t1.871-0.781zM9.297 0h1.93l-3.766 10.109q-0.18 0.477-0.316 0.809t-0.352 0.766-0.422 0.73-0.504 0.613-0.621 0.508-0.746 0.32-0.906 0.145v-1.523q1.273-0.203 1.719-1.422 0.156-0.406 0.156-0.82 0-0.422-0.156-0.828l-2.227-5.727h1.781l1.461 4.57zM13 4.359v8.68h-6.211q0.289-0.43 0.352-0.57h5.297v-8.109q0-0.664-0.387-1.211t-1.012-0.773l0.195-0.523q0.789 0.266 1.277 0.965t0.488 1.543z"></path>
</svg>
