<svg version="1.1" xmlns="http://www.w3.org/2000/svg" xmlns:xlink="http://www.w3.org/1999/xlink" width="12" height="14" viewBox="0 0 12 14">
<path d="M10.328 7q0 0.352-0.039 0.594l-1.844-0.109 1.75 0.609q-0.148 0.57-0.453 1.102l-1.672-0.805 1.383 1.234q-0.344 0.477-0.836 0.844l-1.227-1.391 0.805 1.68q-0.477 0.289-1.094 0.461l-0.617-1.781 0.109 1.875q-0.297 0.047-0.594 0.047t-0.594-0.047l0.109-1.859-0.609 1.766q-0.578-0.148-1.094-0.461l0.805-1.68-1.227 1.391q-0.461-0.336-0.844-0.844l1.391-1.234-1.672 0.813q-0.305-0.539-0.453-1.102l1.75-0.617-1.852 0.109q-0.039-0.328-0.039-0.594 0-0.273 0.039-0.602l1.859 0.109-1.758-0.617q0.148-0.57 0.453-1.094l1.672 0.813-1.383-1.242q0.359-0.477 0.836-0.844l1.234 1.391-0.805-1.68q0.523-0.305 1.094-0.453l0.602 1.75-0.102-1.844q0.281-0.047 0.586-0.047 0.297 0 0.594 0.047l-0.109 1.852 0.609-1.758q0.578 0.148 1.094 0.461l-0.805 1.672 1.234-1.391q0.477 0.367 0.836 0.844l-1.383 1.242 1.664-0.813q0.289 0.484 0.453 1.102l-1.75 0.609 1.852-0.109q0.039 0.242 0.039 0.602zM10.562 7q0-1.25-0.613-2.309t-1.664-1.672-2.285-0.613q-0.93 0-1.773 0.363t-1.457 0.977-0.973 1.465-0.359 1.789q0 0.93 0.359 1.781t0.973 1.465 1.457 0.977 1.773 0.363q1.234 0 2.285-0.613t1.664-1.672 0.613-2.301zM11.133 4.008v5.984l-5.133 2.992-5.133-2.992v-5.984l5.133-2.992zM6 13.43l5.531-3.219v-6.43l-5.531-3.211-5.531 3.211v6.43zM12 3.5v7l-6 3.5-6-3.5v-7l6-3.5z"></path>
</svg>
