<svg version="1.1" xmlns="http://www.w3.org/2000/svg" xmlns:xlink="http://www.w3.org/1999/xlink" width="13" height="14" viewBox="0 0 13 14">
<path d="M5 7.875v-1.75q0-0.125-0.125-0.125h-0.75q-0.125 0-0.125 0.125v1.75q0 0.125 0.125 0.125h0.75q0.125 0 0.125-0.125zM9 7.875v-1.75q0-0.125-0.125-0.125h-0.75q-0.125 0-0.125 0.125v1.75q0 0.125 0.125 0.125h0.75q0.125 0 0.125-0.125zM13 8.125v5.875h-5v-2.5q0-0.625-0.438-1.062t-1.062-0.438-1.062 0.438-0.438 1.062v2.5h-5v-5.875q0-0.125 0.125-0.125h0.75q0.125 0 0.125 0.125v0.875h1v-4.875q0-0.125 0.125-0.125h0.75q0.125 0 0.125 0.125v0.875h1v-0.875q0-0.125 0.125-0.125h0.75q0.125 0 0.125 0.125v0.875h1v-0.875q0-0.047 0.020-0.074t0.066-0.039 0.074-0.016 0.090 0 0.070 0.004v-3.055q-0.25-0.117-0.25-0.391 0-0.18 0.129-0.305t0.301-0.125 0.301 0.125 0.129 0.305q0 0.273-0.25 0.391v0.133q0.352-0.078 0.648-0.078 0.164 0 0.465 0.059t0.426 0.059q0.133 0 0.367-0.059t0.289-0.059q0.125 0 0.125 0.125v1.641q0 0.117-0.273 0.168t-0.484 0.051q-0.141 0-0.426-0.059t-0.434-0.059q-0.312 0-0.703 0.094v1.039q0.008 0 0.070-0.004t0.090 0 0.074 0.016 0.066 0.039 0.020 0.074v0.875h1v-0.875q0-0.125 0.125-0.125h0.75q0.125 0 0.125 0.125v0.875h1v-0.875q0-0.125 0.125-0.125h0.75q0.125 0 0.125 0.125v4.875h1v-0.875q0-0.125 0.125-0.125h0.75q0.125 0 0.125 0.125z"></path>
</svg>
