<svg version="1.1" xmlns="http://www.w3.org/2000/svg" xmlns:xlink="http://www.w3.org/1999/xlink" width="14" height="14" viewBox="0 0 14 14">
<path d="M3.445 5.25q0.25 0 0.406 0.203 2.078 2.844 2.828 6.047h-3.484q-0.992-3.445-2.867-5.852-0.094-0.125-0.023-0.262t0.227-0.137h2.914zM7.813 8.039q-0.383 1.555-0.977 3.070-0.617-2.422-2-4.641 0.312-1.727 0.344-3.508 1.648 2.656 2.633 5.078zM8.586 2.5q1.836 2.531 3.004 5.457t1.441 6.043h-3.523q-0.32-5.195-4.32-11.5h3.398zM14 7q0 3.313-0.789 6.344-0.523-4.375-2.805-8.461-0.195-2.352-0.828-4.562-0.031-0.125 0.043-0.223t0.199-0.098h2.805q0.164 0 0.301 0.102t0.176 0.258q0.898 3.195 0.898 6.641z"></path>
</svg>
