<svg version="1.1" xmlns="http://www.w3.org/2000/svg" xmlns:xlink="http://www.w3.org/1999/xlink" width="14" height="14" viewBox="0 0 14 14">
<path d="M14 7.32q0 0.438-0.055 0.813h-8.992q0 1.141 0.855 1.91t2.012 0.77q0.773 0 1.449-0.363t1.066-1.020h3.305q-0.438 1.242-1.332 2.195t-2.090 1.473-2.508 0.52q-1.461 0-2.781-0.648-1.781 0.906-3.078 0.906-1.852 0-1.852-2.055 0-0.898 0.352-2.148 0.133-0.469 0.852-1.789 1.555-2.812 3.711-4.734-1.438 0.617-3.336 2.766 0.492-2.141 2.215-3.512t3.918-1.371q0.234 0 0.352 0.008 1.992-0.914 3.383-0.914 0.5 0 0.906 0.102t0.738 0.316 0.52 0.598 0.187 0.898q0 0.906-0.586 2.234 0.789 1.422 0.789 3.047zM13.453 2.32q0-0.648-0.414-1.031t-1.070-0.383q-0.844 0-1.984 0.547 0.945 0.367 1.738 1.027t1.332 1.527q0.398-1.055 0.398-1.688zM1 11.984q0 0.672 0.379 1.035t1.051 0.363q0.898 0 2.078-0.648-0.953-0.563-1.668-1.43t-1.074-1.914q-0.766 1.602-0.766 2.594zM4.938 6.414h5.688q-0.039-1.109-0.883-1.852t-1.961-0.742q-1.125 0-1.965 0.742t-0.879 1.852z"></path>
</svg>
