<svg version="1.1" xmlns="http://www.w3.org/2000/svg" xmlns:xlink="http://www.w3.org/1999/xlink" width="18" height="14" viewBox="0 0 18 14">
<path d="M12.852 8.578q0-0.461-0.266-0.832t-0.68-0.535q-0.055 0.352-0.18 0.719-0.055 0.187-0.215 0.297t-0.348 0.109q-0.094 0-0.187-0.023-0.242-0.078-0.352-0.301t-0.031-0.457q0.18-0.555 0.18-1.117 0-0.961-0.477-1.777t-1.297-1.293-1.781-0.477q-1.047 0-1.93 0.57t-1.305 1.516q0.844 0.219 1.469 0.828 0.172 0.18 0.172 0.43t-0.172 0.422-0.422 0.172-0.43-0.172q-0.586-0.586-1.406-0.586-0.828 0-1.414 0.582t-0.586 1.41 0.586 1.41 1.414 0.582h8.172q0.617 0 1.051-0.434t0.434-1.043zM14.047 8.578q0 1.109-0.785 1.891t-1.895 0.781h-8.172q-1.32 0-2.258-0.934t-0.937-2.254q0-1.195 0.781-2.086t1.945-1.062q0.484-1.438 1.727-2.328t2.766-0.891q1.836 0 3.191 1.238t1.535 3.043q0.906 0.195 1.504 0.926t0.598 1.676zM16 8.578q0 1.367-0.758 2.492-0.18 0.258-0.5 0.258-0.187 0-0.336-0.102-0.203-0.133-0.25-0.379t0.094-0.449q0.555-0.813 0.555-1.82t-0.555-1.82q-0.141-0.203-0.094-0.445t0.25-0.383 0.449-0.090 0.387 0.254q0.758 1.109 0.758 2.484zM18 8.578q0 1.906-1.047 3.461-0.18 0.266-0.5 0.266-0.18 0-0.328-0.102-0.203-0.141-0.254-0.383t0.090-0.445q0.844-1.281 0.844-2.797 0-1.523-0.844-2.789-0.141-0.203-0.090-0.449t0.254-0.379q0.203-0.141 0.445-0.094t0.383 0.258q1.047 1.547 1.047 3.453z"></path>
</svg>
