<?xml version="1.0" encoding="iso-8859-1"?>
<!-- Generator: Adobe Illustrator 18.0.0, SVG Export Plug-In . SVG Version: 6.00 Build 0)  -->
<!DOCTYPE svg PUBLIC "-//W3C//DTD SVG 1.1//EN" "http://www.w3.org/Graphics/SVG/1.1/DTD/svg11.dtd">
<svg xmlns="http://www.w3.org/2000/svg" xmlns:xlink="http://www.w3.org/1999/xlink" version="1.1" id="Capa_1" x="0px" y="0px" viewBox="0 0 491.889 491.889" style="enable-background:new 0 0 491.889 491.889;" xml:space="preserve" width="512px" height="512px">
<g id="XMLID_177_">
	<path id="XMLID_181_" d="M232.082,95.937c26.509,0,47.982-21.471,47.982-47.965C280.063,21.468,258.59,0,232.082,0   c-26.497,0-47.961,21.468-47.961,47.972C184.121,74.466,205.585,95.937,232.082,95.937z" fill="#db2b39"/>
	<path id="XMLID_180_" d="M352.349,137.88c7.919,0,15.776-3.398,21.206-9.984c9.649-11.694,7.985-28.979-3.717-38.611   c-5.115-4.216-11.301-6.276-17.44-6.276c-7.918,0-15.751,3.407-21.188,9.993c-9.631,11.695-7.98,28.988,3.718,38.627   C340.025,135.837,346.211,137.88,352.349,137.88z" fill="#db2b39"/>
	<path id="XMLID_179_" d="M423.502,407.045h-33.53V230.608c6.669-2.389,11.923-8.146,13.288-15.627   c1.81-9.96-4.09-19.201-13.288-22.576V157.33l23.479,12.271c1.348,0.695,2.98,0.359,3.925-0.796l4.7-5.695   c0.945-1.155,0.957-2.829,0.031-4l-28.063-35.108c-1.683,5.159-4.269,10.032-7.822,14.345c-3.528,4.27-7.873,7.574-12.568,10.2   h-0.098v0.055c-0.048,0.025-0.098,0.059-0.14,0.089l0.14,0.064v39.976l-38.242-6.964l-44.667-67.173   c-3.877-5.809-10.21-8.632-16.683-8.774l-83.734-0.234c-7.645,0.152-14.903,4.416-18.269,11.847l-68.409,149.868   c-4.711,10.306-0.176,22.477,10.131,27.184c2.772,1.258,5.656,1.859,8.51,1.859c7.789,0,15.245-4.457,18.67-12.006l21.304-46.681   l-18.354,86.406c-0.671,3.15,0.128,6.442,2.151,8.954c2.03,2.5,5.078,3.955,8.314,3.955h19.585v130.301   c0,13.597,11.033,24.618,24.619,24.618c13.593,0,24.62-11.022,24.62-24.618V336.97h17.95v130.301   c0,13.597,11.027,24.618,24.619,24.618c13.595,0,24.62-11.022,24.62-24.618V336.97h19.572c3.237,0,6.278-1.455,8.314-3.955   c2.024-2.512,2.823-5.804,2.152-8.954l-28.326-133.321l13.965,21.005c3.09,4.647,7.93,7.83,13.417,8.832l54.169,9.857v176.611   h-33.53c-4.535,0-8.205,3.67-8.205,8.205c0,4.54,3.67,8.208,8.205,8.208h83.477c4.535,0,8.205-3.668,8.205-8.208   C431.707,410.715,428.037,407.045,423.502,407.045z" fill="#db2b39"/>
	<path id="XMLID_178_" d="M117.371,67.285c-0.391-0.04-0.707-0.226-1.092-0.226c-6.619,0-11.989,5.369-11.989,11.989   c0,6.614,5.37,11.981,11.989,11.981s11.989-5.367,11.989-11.981V20.332c0-1.033-0.481-2.012-1.298-2.651   c-0.805-0.634-1.878-0.86-2.87-0.61L77.378,28.722c-2.42,0.601-4.12,2.774-4.12,5.268v47.4c-0.385-0.039-0.703-0.226-1.094-0.226   c-6.619,0-11.982,5.371-11.982,11.99c0,6.61,5.363,11.981,11.982,11.981c6.621,0,11.991-5.37,11.991-11.981V47.292l33.215-8.286   V67.285z" fill="#db2b39"/>
</g>
<g>
</g>
<g>
</g>
<g>
</g>
<g>
</g>
<g>
</g>
<g>
</g>
<g>
</g>
<g>
</g>
<g>
</g>
<g>
</g>
<g>
</g>
<g>
</g>
<g>
</g>
<g>
</g>
<g>
</g>
</svg>
