<svg version="1.1" xmlns="http://www.w3.org/2000/svg" xmlns:xlink="http://www.w3.org/1999/xlink" width="12" height="14" viewBox="0 0 12 14">
<path d="M10 8.969q0-0.172-0.172-0.211-0.523-0.109-0.922-0.453t-0.625-0.852q-0.055-0.109-0.055-0.195 0-0.117 0.152-0.203t0.332-0.133 0.332-0.16 0.152-0.285q0-0.148-0.145-0.246t-0.301-0.098q-0.086 0-0.242 0.062t-0.25 0.062q-0.031 0-0.094-0.016 0.039-0.492 0.039-0.898 0-0.609-0.133-0.891-0.281-0.609-0.801-0.949t-1.191-0.34q-1.547 0-2.148 1.289-0.141 0.297-0.141 0.898 0 0.297 0.047 0.891-0.078 0.016-0.117 0.016-0.086 0-0.246-0.062t-0.238-0.062q-0.156 0-0.293 0.098t-0.137 0.254q0 0.164 0.152 0.277t0.332 0.16 0.332 0.133 0.152 0.203q0 0.086-0.055 0.195-0.5 1.078-1.547 1.305-0.172 0.039-0.172 0.211 0 0.367 1.078 0.539 0.016 0.039 0.047 0.203t0.086 0.238 0.18 0.074q0.102 0 0.301-0.039t0.301-0.039q0.273 0 0.527 0.117t0.426 0.254 0.449 0.254 0.598 0.117q0.336 0 0.617-0.117t0.449-0.254 0.422-0.254 0.527-0.117q0.102 0 0.305 0.035t0.305 0.035q0.117 0 0.176-0.074t0.090-0.242 0.039-0.191q1.078-0.172 1.078-0.539zM12 3.25v7.5q0 0.93-0.66 1.59t-1.59 0.66h-7.5q-0.93 0-1.59-0.66t-0.66-1.59v-7.5q0-0.93 0.66-1.59t1.59-0.66h7.5q0.93 0 1.59 0.66t0.66 1.59z"></path>
</svg>
