<svg version="1.1" xmlns="http://www.w3.org/2000/svg" xmlns:xlink="http://www.w3.org/1999/xlink" width="12" height="14" viewBox="0 0 12 14">
<path d="M6 1q1.633 0 3.012 0.805t2.184 2.184 0.805 3.012-0.805 3.012-2.184 2.184-3.012 0.805-3.012-0.805-2.184-2.184-0.805-3.012 0.805-3.012 2.184-2.184 3.012-0.805zM6 11.25q1.156 0 2.133-0.57t1.547-1.547 0.57-2.133-0.57-2.133-1.547-1.547-2.133-0.57-2.133 0.57-1.547 1.547-0.57 2.133 0.57 2.133 1.547 1.547 2.133 0.57zM3.75 9.5q-0.109 0-0.18-0.070t-0.070-0.18v-4.5q0-0.109 0.070-0.18t0.18-0.070h4.5q0.109 0 0.18 0.070t0.070 0.18v4.5q0 0.109-0.070 0.18t-0.18 0.070h-4.5z"></path>
</svg>
