<svg version="1.1" xmlns="http://www.w3.org/2000/svg" xmlns:xlink="http://www.w3.org/1999/xlink" width="13" height="14" viewBox="0 0 13 14">
<path d="M6 8v3q0 0.406-0.297 0.703t-0.703 0.297h-4q-0.406 0-0.703-0.297t-0.297-0.703v-3q0-0.406 0.297-0.703t0.703-0.297h4q0.406 0 0.703 0.297t0.297 0.703zM6 2v3q0 0.406-0.297 0.703t-0.703 0.297h-4q-0.406 0-0.703-0.297t-0.297-0.703v-3q0-0.406 0.297-0.703t0.703-0.297h4q0.406 0 0.703 0.297t0.297 0.703zM13 8v3q0 0.406-0.297 0.703t-0.703 0.297h-4q-0.406 0-0.703-0.297t-0.297-0.703v-3q0-0.406 0.297-0.703t0.703-0.297h4q0.406 0 0.703 0.297t0.297 0.703zM13 2v3q0 0.406-0.297 0.703t-0.703 0.297h-4q-0.406 0-0.703-0.297t-0.297-0.703v-3q0-0.406 0.297-0.703t0.703-0.297h4q0.406 0 0.703 0.297t0.297 0.703z"></path>
</svg>
