<svg version="1.1" xmlns="http://www.w3.org/2000/svg" xmlns:xlink="http://www.w3.org/1999/xlink" width="12" height="14" viewBox="0 0 12 14">
<path d="M11.234 6.352q0.266 0.273 0.227 0.641l-0.344 4.305q-0.031 0.328-0.27 0.547t-0.559 0.219q-0.047 0-0.070-0.008-0.344-0.023-0.566-0.285t-0.199-0.605l0.273-3.352-1.117 0.062q0.43 0.883 0.43 1.875 0 1.688-1.156 2.906l-1.070-1.070q0.711-0.789 0.711-1.836 0-1.133-0.801-1.937t-1.934-0.805q-1.047 0-1.844 0.719l-1.070-1.078q0.937-0.891 2.219-1.102l2.062-2.344-1.164-0.68-1.414 1.258q-0.258 0.234-0.602 0.215t-0.57-0.277-0.207-0.602 0.27-0.57l1.867-1.664q0.203-0.18 0.469-0.207t0.5 0.113l3.812 2.211q0.281 0.164 0.375 0.531 0.133 0.523-0.203 0.914l-1.602 1.812 2.898-0.156q0.383-0.023 0.648 0.25zM9.687 2.781q-0.578 0-0.984-0.406t-0.406-0.984 0.406-0.984 0.984-0.406 0.988 0.406 0.41 0.984-0.41 0.984-0.988 0.406zM4.789 12.484q0.828 0 1.531-0.477l1.086 1.086q-1.141 0.906-2.617 0.906-1.156 0-2.137-0.57t-1.551-1.547-0.57-2.133q0-1.469 0.906-2.625l1.086 1.086q-0.469 0.688-0.469 1.539 0 1.133 0.801 1.934t1.934 0.801z"></path>
</svg>
