<svg version="1.1" xmlns="http://www.w3.org/2000/svg" xmlns:xlink="http://www.w3.org/1999/xlink" width="11" height="14" viewBox="0 0 11 14">
<path d="M10.945 12.086l-0.047 0.047q-0.883 0.891-2.023 1.367-1.203 0.5-2.477 0.5-1.289 0-2.477-0.5-1.156-0.492-2.023-1.367-0.883-0.875-1.367-2.016-0.328-0.805-0.422-1.477-0.031-0.219 0.375-0.281 0.398-0.062 0.438 0.156 0.008 0.008 0.008 0.031 0.141 0.703 0.359 1.242 0.391 0.969 1.187 1.766 0.766 0.766 1.766 1.187 1.031 0.438 2.156 0.438 1.117 0 2.156-0.438 1-0.43 1.758-1.187l0.047-0.047q0.078-0.078 0.195-0.047 0.094 0.023 0.258 0.172 0.281 0.289 0.133 0.453zM7.258 7.281l-0.516 0.516 0.492 0.492q0.164 0.164-0.055 0.383-0.133 0.133-0.25 0.133-0.078 0-0.148-0.078l-0.484-0.477-0.516 0.516q-0.039 0.039-0.117 0.039-0.117 0-0.242-0.125l-0.016-0.016q-0.141-0.117-0.141-0.227 0-0.055 0.062-0.133l0.516-0.508-0.516-0.516q-0.125-0.125 0.109-0.352 0.141-0.141 0.242-0.141 0.047 0 0.102 0.039l0.508 0.516 0.508-0.508q0.141-0.133 0.375 0.102 0.211 0.211 0.086 0.344zM10.938 7.727q0 0.922-0.359 1.781-0.352 0.82-0.984 1.453-0.625 0.625-1.461 0.984t-1.781 0.359-1.781-0.359-1.461-0.984q-0.641-0.641-0.977-1.453-0.117-0.25-0.117-0.312h-0.008q-0.070-0.211 0.336-0.344 0.391-0.125 0.469 0.094 0.289 0.773 0.758 1.305h0.008v-2.664q0.023-1.062 0.797-1.812 0.82-0.805 1.977-0.805 1.148 0 1.961 0.805t0.813 1.945q0 1.148-0.816 1.961t-1.957 0.813q-0.453 0-0.875-0.125-0.219-0.086-0.102-0.477 0.125-0.398 0.344-0.336l0.109 0.023q0.109 0.023 0.254 0.047t0.238 0.023q0.813 0 1.375-0.559t0.563-1.363q0-0.789-0.563-1.336-0.555-0.555-1.367-0.555-0.836 0-1.391 0.625-0.5 0.563-0.5 1.25v3.227q0.859 0.523 1.891 0.523 0.75 0 1.445-0.285t1.219-0.809 0.809-1.211 0.285-1.43q0-1.547-1.102-2.648-1.094-1.094-2.648-1.094-1.563 0-2.656 1.094-0.414 0.414-0.602 0.68l-0.016 0.016q-0.062 0.086-0.102 0.121t-0.168 0.074-0.301-0.023q-0.164-0.039-0.285-0.129t-0.121-0.207v-5.312q0-0.117 0.082-0.207t0.215-0.090h6.852q0.234 0 0.234 0.43t-0.234 0.43h-6.336v3.773h0.008q0.312-0.328 0.797-0.656t0.844-0.477q0.852-0.359 1.805-0.359 0.945 0 1.781 0.359t1.461 0.984q0.633 0.633 0.984 1.453 0.359 0.875 0.359 1.789zM10.695 3.188q0.070 0.062 0.070 0.141t-0.043 0.141-0.129 0.164q-0.203 0.203-0.305 0.203-0.070 0-0.125-0.055-0.828-0.711-1.617-1.039-1-0.438-2.156-0.438-1.039 0-2.047 0.383-0.211 0.078-0.352-0.289-0.070-0.195-0.062-0.297 0.023-0.125 0.125-0.156 1.016-0.445 2.336-0.445 1.281 0 2.469 0.5 1.070 0.453 1.836 1.187z"></path>
</svg>
