<svg version="1.1" xmlns="http://www.w3.org/2000/svg" xmlns:xlink="http://www.w3.org/1999/xlink" width="18" height="14" viewBox="0 0 18 14">
<path d="M8.062 7.5q-0.461-0.016-0.656-0.43-0.133-0.266-0.375-0.418t-0.531-0.152q-0.414 0-0.707 0.293t-0.293 0.707q0 0.438 0.281 0.695l0.078 0.062q0.266 0.242 0.641 0.242 0.289 0 0.531-0.152t0.375-0.418q0.195-0.414 0.656-0.43zM12.5 6.5q0-0.438-0.281-0.695l-0.078-0.062q-0.266-0.242-0.641-0.242-0.289 0-0.531 0.152t-0.375 0.418q-0.195 0.414-0.656 0.43 0.461 0.016 0.656 0.43 0.133 0.266 0.375 0.418t0.531 0.152q0.414 0 0.707-0.293t0.293-0.707zM9.172 4.773q-0.133 0.273-0.43 0.375t-0.57-0.031q-0.484-0.242-1.047-0.242-0.398 0-0.773 0.133 0.023 0 0.074-0.004t0.074-0.004q0.719 0 1.332 0.391t0.926 1.039q0.133 0.281 0.027 0.574t-0.387 0.426q-0.141 0.070-0.305 0.070 0.164 0 0.305 0.070 0.281 0.133 0.387 0.426t-0.027 0.574q-0.312 0.648-0.926 1.039t-1.332 0.391h-0.047q-0.125-0.016-0.344-0.031l-2.266-0.211-1.867 0.937q-0.109 0.055-0.227 0.055-0.312 0-0.445-0.273l-1.25-2.5q-0.086-0.18-0.031-0.371t0.227-0.293l1.633-0.93 1.156-2.086q0.133-1.211 0.715-2.277t1.527-1.848q0.242-0.195 0.551-0.168t0.504 0.27 0.168 0.547-0.27 0.508q-0.547 0.461-0.914 1 0.961-0.656 2.086-0.789 0.312-0.039 0.559 0.148t0.277 0.5q0.039 0.312-0.148 0.559t-0.5 0.277q-0.656 0.078-1.242 0.43 0.359-0.078 0.773-0.078 0.898 0 1.703 0.391 0.281 0.141 0.383 0.434t-0.039 0.574zM16.695 3.523l1.25 2.5q0.086 0.18 0.031 0.371t-0.227 0.293l-1.633 0.93-1.156 2.086q-0.133 1.211-0.715 2.277t-1.527 1.848q-0.203 0.172-0.477 0.172-0.352 0-0.578-0.273-0.195-0.242-0.168-0.547t0.27-0.508q0.547-0.461 0.914-1-0.961 0.656-2.086 0.789-0.031 0.008-0.094 0.008-0.281 0-0.496-0.187t-0.246-0.469q-0.039-0.312 0.148-0.559t0.5-0.277q0.656-0.078 1.242-0.43-0.359 0.078-0.773 0.078-0.898 0-1.703-0.391-0.281-0.141-0.383-0.434t0.039-0.574q0.133-0.273 0.43-0.375t0.57 0.031q0.484 0.242 1.047 0.242 0.398 0 0.773-0.133-0.023 0-0.074 0.004t-0.074 0.004q-0.719 0-1.332-0.391t-0.926-1.039q-0.133-0.281-0.027-0.574t0.387-0.426q0.141-0.070 0.305-0.070-0.164 0-0.305-0.070-0.281-0.133-0.387-0.426t0.027-0.574q0.312-0.648 0.926-1.039t1.332-0.391h0.055q0.109 0.016 0.328 0.031l2.273 0.211 1.867-0.937q0.109-0.055 0.227-0.055 0.312 0 0.445 0.273z"></path>
</svg>
