<svg version="1.1" xmlns="http://www.w3.org/2000/svg" xmlns:xlink="http://www.w3.org/1999/xlink" width="17" height="14" viewBox="0 0 17 14">
<path d="M1.5 9.25q-0.516 0-0.883 0.367t-0.367 0.883 0.367 0.883 0.883 0.367 0.883-0.367 0.367-0.883-0.367-0.883-0.883-0.367zM5.5 9.25q-0.516 0-0.883 0.367t-0.367 0.883 0.367 0.883 0.883 0.367 0.883-0.367 0.367-0.883-0.367-0.883-0.883-0.367zM5.5 5.25q-0.516 0-0.883 0.367t-0.367 0.883 0.367 0.883 0.883 0.367 0.883-0.367 0.367-0.883-0.367-0.883-0.883-0.367zM11.5 9.25q-0.516 0-0.883 0.367t-0.367 0.883 0.367 0.883 0.883 0.367 0.883-0.367 0.367-0.883-0.367-0.883-0.883-0.367zM15.5 9.25q-0.516 0-0.883 0.367t-0.367 0.883 0.367 0.883 0.883 0.367 0.883-0.367 0.367-0.883-0.367-0.883-0.883-0.367zM11.5 5.25q-0.516 0-0.883 0.367t-0.367 0.883 0.367 0.883 0.883 0.367 0.883-0.367 0.367-0.883-0.367-0.883-0.883-0.367zM15.5 5.25q-0.516 0-0.883 0.367t-0.367 0.883 0.367 0.883 0.883 0.367 0.883-0.367 0.367-0.883-0.367-0.883-0.883-0.367zM15.5 1.25q-0.516 0-0.883 0.367t-0.367 0.883 0.367 0.883 0.883 0.367 0.883-0.367 0.367-0.883-0.367-0.883-0.883-0.367zM3 10.5q0 0.625-0.438 1.062t-1.062 0.438-1.062-0.438-0.438-1.062 0.438-1.062 1.062-0.438 1.062 0.438 0.438 1.062zM7 10.5q0 0.625-0.438 1.062t-1.062 0.438-1.062-0.438-0.438-1.062 0.438-1.062 1.062-0.438 1.062 0.438 0.438 1.062zM3 6.5q0 0.625-0.438 1.062t-1.062 0.438-1.062-0.438-0.438-1.062 0.438-1.062 1.062-0.438 1.062 0.438 0.438 1.062zM7 6.5q0 0.625-0.438 1.062t-1.062 0.438-1.062-0.438-0.438-1.062 0.438-1.062 1.062-0.438 1.062 0.438 0.438 1.062zM3 2.5q0 0.625-0.438 1.062t-1.062 0.438-1.062-0.438-0.438-1.062 0.438-1.062 1.062-0.438 1.062 0.438 0.438 1.062zM13 10.5q0 0.625-0.438 1.062t-1.062 0.438-1.062-0.438-0.438-1.062 0.438-1.062 1.062-0.438 1.062 0.438 0.438 1.062zM7 2.5q0 0.625-0.438 1.062t-1.062 0.438-1.062-0.438-0.438-1.062 0.438-1.062 1.062-0.438 1.062 0.438 0.438 1.062zM17 10.5q0 0.625-0.438 1.062t-1.062 0.438-1.062-0.438-0.438-1.062 0.438-1.062 1.062-0.438 1.062 0.438 0.438 1.062zM13 6.5q0 0.625-0.438 1.062t-1.062 0.438-1.062-0.438-0.438-1.062 0.438-1.062 1.062-0.438 1.062 0.438 0.438 1.062zM17 6.5q0 0.625-0.438 1.062t-1.062 0.438-1.062-0.438-0.438-1.062 0.438-1.062 1.062-0.438 1.062 0.438 0.438 1.062zM13 2.5q0 0.625-0.438 1.062t-1.062 0.438-1.062-0.438-0.438-1.062 0.438-1.062 1.062-0.438 1.062 0.438 0.438 1.062zM17 2.5q0 0.625-0.438 1.062t-1.062 0.438-1.062-0.438-0.438-1.062 0.438-1.062 1.062-0.438 1.062 0.438 0.438 1.062z"></path>
</svg>
