<svg version="1.1" xmlns="http://www.w3.org/2000/svg" xmlns:xlink="http://www.w3.org/1999/xlink" width="13" height="14" viewBox="0 0 13 14">
<path d="M12.102 5.305q0.43 0 0.668 0.223t0.238 0.652-0.266 0.641-0.711 0.211h-1.062v1.383h-0.195v-3.109h1.328zM13.359 9.914l-0.031 0.086-0.039 0.078q-0.883 1.797-2.582 2.859t-3.707 1.062q-1.422 0-2.719-0.555t-2.234-1.492-1.492-2.234-0.555-2.719 0.555-2.719 1.492-2.234 2.234-1.492 2.719-0.555q1.906 0 3.551 0.969t2.574 2.641l0.078 0.156q-0.234 0.117-1.066 0.535t-1.277 0.66q-0.047 0.023-3.742 2.094 3 1.43 6.242 2.859zM7 13.828q1.953 0 3.613-1.035t2.52-2.793l-2.242-1.008q-0.563 1.094-1.609 1.734t-2.281 0.641q-1.18 0-2.188-0.586t-1.594-1.594-0.586-2.187 0.586-2.188 1.594-1.594 2.188-0.586 2.188 0.574 1.594 1.598l2.188-1.117q-0.906-1.625-2.508-2.57t-3.461-0.945q-0.93 0-1.816 0.246t-1.633 0.684-1.379 1.070-1.070 1.379-0.684 1.633-0.246 1.816 0.246 1.816 0.684 1.633 1.070 1.379 1.379 1.070 1.633 0.684 1.816 0.246z"></path>
</svg>
