<?xml version="1.0" encoding="iso-8859-1"?>
<!-- Generator: Adobe Illustrator 16.0.0, SVG Export Plug-In . SVG Version: 6.00 Build 0)  -->
<!DOCTYPE svg PUBLIC "-//W3C//DTD SVG 1.1//EN" "http://www.w3.org/Graphics/SVG/1.1/DTD/svg11.dtd">
<svg xmlns="http://www.w3.org/2000/svg" xmlns:xlink="http://www.w3.org/1999/xlink" version="1.1" id="Capa_1" x="0px" y="0px" width="512px" height="512px" viewBox="0 0 487.02 487.021" style="enable-background:new 0 0 487.02 487.021;" xml:space="preserve">
<g>
	<path d="M261.495,468.783c1.141,6.289,3.936,12.034,7.979,17.022c-71.827,6.679-135.196-14.304-188.564-63.121   C35.91,381.528,10.562,329.921,3.696,269.406C-10.691,142.618,80.306,23.448,206.158,4.129C218.414,2.246,230.814,1.351,243.15,0   c0.872,0,1.753,0,2.622,0c13.21,1.374,26.562,1.959,39.607,4.229c65.456,11.41,117.873,44.168,157.066,97.74   c22.243,30.426,36.617,64.282,42.375,101.101L415.02,214.39c-1.513-0.503-3.191-0.97-5.296-1.428   c-12.135-2.651-16.006-8.112-12.602-20.058c2.275-7.965,6.023-15.531,9.434-23.147c3.559-7.947,5.935-15.778,4.108-24.804   c-1.638-8.11-1.39-16.385,6.028-23.194c-6.909-7.861-13.299-15.475-20.108-22.686c-3.215-3.393-5.904-2.16-6.897,2.604   c-0.242,1.167-0.201,2.397-0.474,3.559c-2.506,10.619-9.055,13.051-17.619,6.561c-1.431-1.087-2.684-2.624-4.285-3.188   c-2.695-0.943-5.758-2.148-8.405-1.699c-9.209,1.561-10.729,0.458-9.9-8.668c0.585-6.44-1.679-8.878-8.057-8.583   c-2.188,0.109-4.368,0.556-6.55,0.606c-6.903,0.109-11.224-5.122-9.521-11.798c0.881-3.449,2.79-6.635,3.617-10.083   c0.627-2.565,1.425-6.549,0.118-7.838c-5.272-5.175-10.952-10.169-17.183-14.091c-11.225-7.081-22.573-1.9-33.732,0.721   c-1.2,9.114-2.453,10.344-11.143,7.764c-10.338-3.085-20.167-7.4-27.216-16.287c-0.883-1.126-3.002-1.995-4.412-1.844   c-10.672,1.214-21.317,2.615-31.921,4.265c-1.525,0.248-3.916,2.296-3.893,3.475c0.036,2.045,1.386,5.568,2.657,5.792   c3.443,0.606,7.438,0.594,10.645-0.635c4.389-1.7,8.119-5.024,12.386-7.143c5.169-2.565,8.901-0.671,10.373,4.909   c1.75,6.611-0.611,12.214-5.999,15.652c-7.341,4.667-15.392,8.228-22.993,12.507c-5.337,2.988-10.811,5.943-15.548,9.75   c-3.81,3.062-6.46,7.814-3.434,12.699c2.811,4.54,7.802,3.473,11.943,2.007c4.25-1.498,8.275-3.721,12.232-5.929   c2.415-1.351,4.401-3.452,6.768-4.896c4.72-2.876,7.232-1.9,9.035,3.224c3.026,8.621,8.795,10.616,16.512,5.619   c3.337-2.161,6.339-4.897,9.82-6.774c5.131-2.766,10.634,0.174,11.131,5.568c0.727,7.899,2.564,9.437,10.396,8.559   c4.622-0.521,9.227-1.203,13.837-1.82c0.408,0.47,0.81,0.931,1.218,1.403c-1.607,3.003-2.541,6.821-4.977,8.819   c-3.76,3.062-8.388,5.222-12.915,7.151c-6.579,2.805-12.495,4.492-12.714,4.874c0,0,9.232,3.735,4.361,5.121   c-8.026,2.27-20.176,15.282-2.725,9.883c3.127-0.957,6.324-1.726,10.723-2.917c-3.671,11.039-11.432,15.38-19.109,19.497   c-22.979,12.291-23.792,41.75-12.062,56.87c2.545,3.287,4.667,6.972,6.476,10.72c2.086,4.314,1.938,9.489-2.205,11.759   c-2.787,1.525-8.39,1.203-10.873-0.697c-6.041-4.622-11.511-10.246-16.264-16.246c-6.041-7.601-10.385-16.63-16.778-23.876   c-20.652-23.38-43.961-18.229-63.916-0.63c-5.048,4.457-4.383,8.488,1.188,12.153c1.977,1.292,4.143,2.379,6.348,3.263   c8.86,3.585,17.783,6.999,26.643,10.569c1.823,0.732,3.694,1.587,5.208,2.801c3.067,2.471,3.236,5.11-0.771,6.703   c-2.929,1.156-6.07,1.856-9.168,2.53c-5.816,1.265-11.978,1.619-17.401,3.818c-3.147,1.276-6.756,5.175-7.173,8.284   c-0.357,2.659,3.171,6.289,5.701,8.735c1.889,1.81,5.072,2.199,7.427,3.642c3.274,1.986,6.803,3.925,9.351,6.685   c4.309,4.664,7.353,5.828,12.942,2.701c5.379-3.003,10.56-6.348,15.755-9.67c6.153-3.925,7.317-3.44,10.87,2.861   c4.412,7.837,10.495,14.292,20.371,12.542c7.058-1.265,13.755-4.516,20.623-6.832c4.681-1.584,9.292-3.89,14.097-4.457   c9.836-1.177,17.372,7.146,17.928,18.666c0.55,11.526-4.788,20.156-12.921,27.65c-7.979,7.342-12.271,15.734-8.601,27.143   c3.901,12.129-0.254,22.543-9.533,30.605c-6.435,5.604-13.554,10.463-20.653,15.238c-8.316,5.586-22.159,36.191-19.109,46.973   c0.582,2.021,0.75,2.293,0.6,4.475c-0.792,11.49-6.688,9.469-16.952,11.266c-5.799,1.017-5.231-11.266-6.555-16.881   c-1.277-5.391-1.271-11.384-0.431-16.904c0.824-5.421,3.372-10.581,5.23-15.83c3.881-10.999,1.07-20.362-7.01-28.348   c-3.535-3.499-7.409-6.667-11.039-10.072c-13.208-12.354-19.618-27.887-20.312-45.678c-0.352-8.961,4.049-13.039,12.927-13.879   c1.859-0.177,3.709-0.426,5.574-0.638c-1.041-7.442-3.771-10.268-11.05-10.729c-6.918-0.419-10.944-4.327-13.606-10.019   c-1.241-2.66-1.466-5.781-2.512-8.547c-2.5-6.597-4.255-13.761-8.136-19.459c-3.496-5.136-6.36-9.566-6.227-16.092   c0.059-3.05-2.131-6.596-4.256-9.126c-4.812-5.71-10.143-10.994-15.416-16.302c-2.072-2.081-4.551-3.759-7.971-6.525   c-0.236,5.225-0.242,8.609-0.57,11.942c-0.473,4.729-0.526,9.661-2.039,14.056c-0.842,2.456-4.442,5.73-6.508,5.53   c-2.625-0.249-6.422-3.224-7.111-5.742c-1.265-4.614-1.604-9.957-0.629-14.647c4.569-22.015,6.508-44.106,3.939-66.493   c-0.937-8.204-2.075-16.373-3.23-25.464c-42.98,50.561-63.573,142.423-21.294,223.613   c39.227,75.327,117.137,118.269,198.998,112.932C260.134,459.125,260.372,463.959,261.495,468.783z M334.102,427.088   c-7.908-2.766-17.307-3.25-26.936-0.869c-21.385,5.361-35.382,22.97-31.273,39.366c2.394,15.196,24.76,25.352,46.092,19.984   c18.796-4.646,31.883-18.891,31.983-33.384h0.018l0.509-153.125l110.442-20.19v123.085c-8.033-2.837-17.649-3.333-27.391-0.916   c-21.604,5.421-35.736,23.194-31.599,39.786c4.137,16.55,24.99,25.593,46.588,20.244c19.677-4.972,32.285-18.466,32.285-35.382   V221.391l-150.725,24.438v181.26H334.102z" fill="#db2b39"/>
</g>
<g>
</g>
<g>
</g>
<g>
</g>
<g>
</g>
<g>
</g>
<g>
</g>
<g>
</g>
<g>
</g>
<g>
</g>
<g>
</g>
<g>
</g>
<g>
</g>
<g>
</g>
<g>
</g>
<g>
</g>
</svg>
