<svg version="1.1" xmlns="http://www.w3.org/2000/svg" xmlns:xlink="http://www.w3.org/1999/xlink" width="14" height="14" viewBox="0 0 14 14">
<path d="M0.539 6.211h0.008q0.125-0.984 0.457-1.887t0.898-1.695 1.309-1.375 1.746-0.918 2.16-0.336q1.805 0 3.234 0.824t2.297 2.371q0.813 1.461 0.813 3.453v1.469h-8.789q0.008 0.867 0.418 1.504t1.066 0.957 1.48 0.445 1.664 0.023 1.625-0.363 1.355-0.66v2.945q-0.719 0.43-1.793 0.719t-2.441 0.297-2.469-0.414q-1.477-0.57-2.434-1.945t-0.973-2.906q-0.023-1.891 0.867-3.219t2.539-2.094q-0.375 0.469-0.609 0.98t-0.359 1.246h4.961q0.062-0.602-0.062-1.094t-0.367-0.793-0.551-0.52-0.629-0.32-0.586-0.16-0.438-0.066l-0.172-0.008q-1.055 0.039-2.027 0.348t-1.746 0.816-1.375 1.098-1.078 1.277z"></path>
</svg>
