<svg version="1.1" xmlns="http://www.w3.org/2000/svg" xmlns:xlink="http://www.w3.org/1999/xlink" width="14" height="14" viewBox="0 0 14 14">
<path d="M14 9.25v1.5q0 0.102-0.074 0.176t-0.176 0.074h-10.75v1.5q0 0.102-0.074 0.176t-0.176 0.074q-0.094 0-0.187-0.078l-2.492-2.5q-0.070-0.070-0.070-0.172 0-0.109 0.070-0.18l2.5-2.5q0.070-0.070 0.18-0.070 0.102 0 0.176 0.074t0.074 0.176v1.5h10.75q0.102 0 0.176 0.074t0.074 0.176zM14 5q0 0.109-0.070 0.18l-2.5 2.5q-0.070 0.070-0.18 0.070-0.102 0-0.176-0.074t-0.074-0.176v-1.5h-10.75q-0.102 0-0.176-0.074t-0.074-0.176v-1.5q0-0.102 0.074-0.176t0.176-0.074h10.75v-1.5q0-0.109 0.070-0.18t0.18-0.070q0.094 0 0.187 0.078l2.492 2.492q0.070 0.070 0.070 0.18z"></path>
</svg>
