<svg version="1.1" xmlns="http://www.w3.org/2000/svg" xmlns:xlink="http://www.w3.org/1999/xlink" width="12" height="14" viewBox="0 0 12 14">
<path d="M5.813 2.383q0-0.187-0.016-0.301t-0.066-0.234-0.164-0.18-0.293-0.059q-0.305 0-0.609 0.18-0.82 0.453-1.242 1.488t-0.422 2.105q0 0.344 0.066 0.668t0.207 0.629 0.41 0.488 0.637 0.184q0.031 0 0.141 0.004t0.156 0 0.125-0.023 0.117-0.066 0.055-0.125q0.125-0.602 0.375-1.809t0.375-1.809q0.148-0.711 0.148-1.141zM11.703 7.508q0 0.055-0.059 0.105t-0.121 0.051l-0.047-0.008q-0.172-0.023-0.484-0.086t-0.563-0.098-0.492-0.035q-1.305 0-2.742 0.727-0.117 0.062-0.164 0.211-0.078 0.281-0.191 0.824t-0.176 0.785q-0.18 0.711-0.547 1.402t-0.879 1.285-1.207 0.961-1.445 0.367q-1.055 0-1.676-0.652t-0.621-1.715q0-0.414 0.152-0.914t0.492-0.91 0.762-0.41q0.297 0 0.937 0.262t0.648 0.48q0 0.008-0.129 0.098t-0.309 0.242-0.359 0.348-0.305 0.477-0.125 0.578q0 0.258 0.129 0.414t0.379 0.156q0.352 0 0.664-0.246t0.52-0.609 0.375-0.824 0.254-0.836 0.125-0.703v-0.070q0-0.016-0.027-0.027t-0.066-0.012h-0.078t-0.078 0.004-0.047 0.004q-1.773 0-2.75-0.957t-0.977-2.723q0-0.844 0.27-1.727t0.75-1.641 1.219-1.309 1.598-0.699q0.406-0.070 0.828-0.070 2.922 0 2.922 2.812 0 0.766-0.297 2.133t-0.336 1.648l0.023 0.023q0.789-0.445 1.426-0.688t1.309-0.242q0.172 0 0.414 0.102 0.148 0.055 0.625 0.801t0.477 0.91z"></path>
</svg>
