<svg version="1.1" xmlns="http://www.w3.org/2000/svg" xmlns:xlink="http://www.w3.org/1999/xlink" width="12" height="14" viewBox="0 0 12 14">
<path d="M6.766 4.023q0 0.211-0.102 0.734-0.086 0.391-0.246 1.172t-0.238 1.172q-0.016 0.086-0.035 0.098t-0.105 0.020q-0.156 0.016-0.242 0.016-0.453 0-0.656-0.387t-0.203-0.887q0-0.688 0.273-1.359t0.805-0.969q0.219-0.109 0.398-0.109 0.219 0 0.285 0.129t0.066 0.371zM10.562 7.336q0-0.109-0.305-0.59t-0.406-0.52q-0.164-0.062-0.266-0.062-0.711 0-1.766 0.602l-0.016-0.016q0.023-0.172 0.215-1.055t0.191-1.391q0-1.82-1.891-1.82-0.187 0-0.531 0.047-0.734 0.133-1.316 0.699t-0.871 1.301-0.289 1.477q0 1.141 0.629 1.758t1.777 0.617q0.195 0 0.195 0.023t-0.008 0.039q-0.031 0.266-0.203 0.914-0.109 0.406-0.402 0.789t-0.645 0.383q-0.328 0-0.328-0.367 0-0.187 0.082-0.371t0.195-0.309 0.23-0.223 0.203-0.156 0.086-0.066q0-0.023-0.055-0.078-0.187-0.172-0.457-0.285t-0.512-0.113q-0.273 0-0.496 0.266t-0.32 0.586-0.098 0.586q0 0.688 0.402 1.109t1.082 0.422q0.641 0 1.211-0.414t0.918-0.984 0.512-1.195q0.047-0.172 0.121-0.52t0.113-0.52q0.023-0.094 0.109-0.141 0.922-0.469 1.773-0.469 0.375 0 0.992 0.141 0.008 0.008 0.031 0.008 0.039 0 0.074-0.035t0.035-0.066zM12 3.25v7.5q0 0.93-0.66 1.59t-1.59 0.66h-7.5q-0.93 0-1.59-0.66t-0.66-1.59v-7.5q0-0.93 0.66-1.59t1.59-0.66h7.5q0.93 0 1.59 0.66t0.66 1.59z"></path>
</svg>
