<svg version="1.1" xmlns="http://www.w3.org/2000/svg" xmlns:xlink="http://www.w3.org/1999/xlink" width="12" height="14" viewBox="0 0 12 14">
<path d="M7.164 7.070q0-0.258-0.047-0.5h-2.828v1.031h1.695q-0.094 0.594-0.582 0.941t-1.113 0.348q-0.773 0-1.32-0.559t-0.547-1.332 0.547-1.332 1.32-0.559q0.727 0 1.195 0.461l0.813-0.789q-0.844-0.781-2.008-0.781-1.25 0-2.125 0.879t-0.875 2.121 0.875 2.121 2.125 0.879q1.289 0 2.082-0.82t0.793-2.109zM9.859 7.43h0.852v-0.859h-0.852v-0.859h-0.859v0.859h-0.859v0.859h0.859v0.859h0.859v-0.859zM12 7q0 1.633-0.805 3.012t-2.184 2.184-3.012 0.805-3.012-0.805-2.184-2.184-0.805-3.012 0.805-3.012 2.184-2.184 3.012-0.805 3.012 0.805 2.184 2.184 0.805 3.012z"></path>
</svg>
