<svg version="1.1" xmlns="http://www.w3.org/2000/svg" xmlns:xlink="http://www.w3.org/1999/xlink" width="12" height="14" viewBox="0 0 12 14">
<path d="M6 6.141h5.664q0.094 0.523 0.094 1 0 1.695-0.711 3.027t-2.027 2.082-3.020 0.75q-1.227 0-2.336-0.473t-1.914-1.277-1.277-1.914-0.473-2.336 0.473-2.336 1.277-1.914 1.914-1.277 2.336-0.473q2.344 0 4.023 1.57l-1.633 1.57q-0.961-0.93-2.391-0.93-1.008 0-1.863 0.508t-1.355 1.379-0.5 1.902 0.5 1.902 1.355 1.379 1.863 0.508q0.68 0 1.25-0.187t0.937-0.469 0.641-0.641 0.402-0.68 0.176-0.609h-3.406v-2.062z"></path>
</svg>
