<svg version="1.1" xmlns="http://www.w3.org/2000/svg" xmlns:xlink="http://www.w3.org/1999/xlink" width="12" height="14" viewBox="0 0 12 14">
<path d="M7.164 7.070q0-0.203-0.047-0.5h-2.828v1.031h1.695q-0.023 0.187-0.129 0.391t-0.293 0.414-0.52 0.348-0.754 0.137q-0.773 0-1.32-0.555t-0.547-1.336 0.547-1.336 1.32-0.555q0.719 0 1.195 0.461l0.813-0.789q-0.844-0.781-2.008-0.781-1.25 0-2.125 0.879t-0.875 2.121 0.875 2.121 2.125 0.879q1.289 0 2.082-0.82t0.793-2.109zM9.859 7.43h0.852v-0.859h-0.852v-0.859h-0.859v0.859h-0.859v0.859h0.859v0.859h0.859v-0.859zM12 3.25v7.5q0 0.93-0.66 1.59t-1.59 0.66h-7.5q-0.93 0-1.59-0.66t-0.66-1.59v-7.5q0-0.93 0.66-1.59t1.59-0.66h7.5q0.93 0 1.59 0.66t0.66 1.59z"></path>
</svg>
