<svg version="1.1" xmlns="http://www.w3.org/2000/svg" xmlns:xlink="http://www.w3.org/1999/xlink" width="14" height="14" viewBox="0 0 14 14">
<path d="M7.742 8l0.5-2h-1.984l-0.5 2h1.984zM13.742 4.063l-0.438 1.75q-0.055 0.187-0.242 0.187h-2.555l-0.5 2h2.43q0.117 0 0.195 0.094 0.078 0.109 0.047 0.219l-0.438 1.75q-0.039 0.187-0.242 0.187h-2.555l-0.633 2.563q-0.055 0.187-0.242 0.187h-1.75q-0.125 0-0.203-0.094-0.070-0.094-0.047-0.219l0.609-2.438h-1.984l-0.633 2.563q-0.055 0.187-0.242 0.187h-1.758q-0.117 0-0.195-0.094-0.070-0.094-0.047-0.219l0.609-2.438h-2.43q-0.117 0-0.195-0.094-0.070-0.094-0.047-0.219l0.437-1.75q0.055-0.187 0.242-0.187h2.555l0.5-2h-2.43q-0.117 0-0.195-0.094-0.078-0.109-0.047-0.219l0.438-1.75q0.039-0.187 0.242-0.187h2.555l0.633-2.563q0.055-0.187 0.25-0.187h1.75q0.117 0 0.195 0.094 0.070 0.094 0.047 0.219l-0.609 2.438h1.984l0.633-2.563q0.055-0.187 0.25-0.187h1.75q0.117 0 0.195 0.094 0.070 0.094 0.047 0.219l-0.609 2.438h2.43q0.117 0 0.195 0.094 0.070 0.094 0.047 0.219z"></path>
</svg>
