<svg version="1.1" xmlns="http://www.w3.org/2000/svg" xmlns:xlink="http://www.w3.org/1999/xlink" width="14" height="14" viewBox="0 0 14 14">
<path d="M2.617 10.594q-0.016 0-0.047-0.016-0.672-0.445-1.316-1.133t-1.090-1.406q-0.164-0.234-0.164-0.539 0-0.070 0.016-0.148t0.031-0.141 0.055-0.141 0.066-0.125 0.082-0.133 0.078-0.117 0.094-0.121 0.086-0.113q1.438-1.961 3.531-2.852-0.859-1.547-0.859-1.648 0-0.148 0.133-0.227 0.906-0.5 1-0.5 0.141 0 0.219 0.125l0.969 1.789q0.719-0.148 1.5-0.148 2.078 0 3.887 1.074t2.957 2.887q0.156 0.242 0.156 0.539t-0.156 0.539q-0.711 1.109-1.707 1.98t-2.176 1.371q0.859 1.547 0.859 1.648 0 0.156-0.133 0.227-0.906 0.5-0.992 0.5-0.148 0-0.227-0.125l-0.969-1.789-0.5-0.93-3.469-6.406 0.055-0.055q-0.453 0.187-0.773 0.367 0.023 0.039 0.992 1.828t1.898 3.508 0.93 1.742q0 0.055-0.070 0.070-0.102 0.023-0.563 0.023-0.445 0-0.469-0.055l-3.562-6.57q-0.305 0.219-0.641 0.531 0.187 0.336 1.672 3.074t1.484 2.77q0 0.078-0.086 0.078-0.109 0-0.645-0.172t-0.566-0.219l-0.828-1.539-1.75-3.227q-0.344 0.414-0.609 0.828 0.016 0.023 0.141 0.195t0.18 0.266l1.375 2.555q0 0.078-0.078 0.078zM9.102 9.797l0.383 0.711q2.133-0.867 3.516-3.008-1.406-2.164-3.586-3.039 0.523 0.5 0.805 1.16t0.281 1.379q0 0.828-0.367 1.566t-1.031 1.23zM6.625 5q0 0.156 0.109 0.266t0.266 0.109q0.672 0 1.148 0.477t0.477 1.148q0 0.156 0.109 0.266t0.266 0.109 0.266-0.109 0.109-0.266q0-0.984-0.695-1.68t-1.68-0.695q-0.156 0-0.266 0.109t-0.109 0.266zM9.484 4.492l-0.070-0.031 0.055 0.055z"></path>
</svg>
