<svg version="1.1" xmlns="http://www.w3.org/2000/svg" xmlns:xlink="http://www.w3.org/1999/xlink" width="14" height="14" viewBox="0 0 14 14">
<path d="M4.664 3.289v9.164q0 0.195-0.098 0.332t-0.285 0.137q-0.133 0-0.258-0.062l-3.633-1.82q-0.164-0.078-0.277-0.262t-0.113-0.363v-8.906q0-0.156 0.078-0.266t0.227-0.109q0.109 0 0.344 0.117l3.992 2q0.023 0.023 0.023 0.039zM5.164 4.078l4.172 6.766-4.172-2.078v-4.687zM14 4.219v8.234q0 0.195-0.109 0.316t-0.297 0.121-0.367-0.102l-3.445-1.719zM13.977 3.281q0 0.023-2.004 3.277t-2.348 3.809l-3.047-4.953 2.531-4.117q0.133-0.219 0.406-0.219 0.109 0 0.203 0.047l4.227 2.109q0.031 0.016 0.031 0.047z"></path>
</svg>
