<?xml version="1.0" encoding="iso-8859-1"?>
<!-- Generator: Adobe Illustrator 18.0.0, SVG Export Plug-In . SVG Version: 6.00 Build 0)  -->
<!DOCTYPE svg PUBLIC "-//W3C//DTD SVG 1.1//EN" "http://www.w3.org/Graphics/SVG/1.1/DTD/svg11.dtd">
<svg xmlns="http://www.w3.org/2000/svg" xmlns:xlink="http://www.w3.org/1999/xlink" version="1.1" id="Capa_1" x="0px" y="0px" viewBox="0 0 277.982 277.982" style="enable-background:new 0 0 277.982 277.982;" xml:space="preserve" width="512px" height="512px">
<g>
	<path d="M277.945,141.795c-0.01-0.101-0.029-0.199-0.043-0.298c-0.02-0.143-0.037-0.286-0.065-0.427   c-0.024-0.118-0.057-0.233-0.085-0.35c-0.03-0.121-0.057-0.242-0.093-0.362c-0.035-0.115-0.078-0.227-0.119-0.339   c-0.042-0.118-0.081-0.237-0.129-0.353c-0.044-0.106-0.096-0.208-0.144-0.311c-0.056-0.118-0.108-0.238-0.17-0.354   c-0.053-0.098-0.113-0.192-0.17-0.287c-0.068-0.115-0.133-0.231-0.208-0.342c-0.069-0.104-0.147-0.202-0.222-0.302   c-0.071-0.095-0.138-0.193-0.214-0.286c-0.146-0.178-0.3-0.347-0.461-0.511c-0.012-0.012-0.022-0.026-0.034-0.038l-63.111-63.111   v-7.47c0-4.142-3.357-7.5-7.5-7.5s-7.5,3.358-7.5,7.5v7.403l-58.757,56.985l-58.61-57.942v-6.446c0-4.142-3.357-7.5-7.5-7.5   s-7.5,3.358-7.5,7.5v6.504L2.156,137.274c-0.058,0.058-0.106,0.121-0.161,0.181c-0.106,0.115-0.214,0.23-0.313,0.352   c-0.074,0.091-0.139,0.186-0.208,0.279c-0.076,0.103-0.154,0.204-0.225,0.311c-0.07,0.106-0.132,0.215-0.196,0.323   c-0.061,0.102-0.123,0.202-0.179,0.307c-0.06,0.112-0.111,0.227-0.164,0.341c-0.05,0.108-0.102,0.214-0.147,0.324   c-0.046,0.113-0.085,0.229-0.126,0.344c-0.041,0.116-0.084,0.232-0.12,0.35c-0.034,0.115-0.061,0.232-0.089,0.349   c-0.03,0.121-0.062,0.241-0.086,0.364c-0.024,0.127-0.041,0.255-0.058,0.383c-0.017,0.114-0.036,0.227-0.047,0.343   c-0.015,0.156-0.019,0.313-0.024,0.47C0.01,142.376,0,142.455,0,142.537v68.792c0,4.142,3.357,7.5,7.5,7.5h262.982   c4.143,0,7.5-3.358,7.5-7.5v-68.787C277.982,142.293,277.97,142.043,277.945,141.795z M205.175,100.947l11.364,34.09h-22.727   L205.175,100.947z M178,135.037h-21.657l32.003-31.038L178,135.037z M99.982,135.037l-10.637-31.912l32.281,31.912H99.982z    M84.17,135.037H61.444l11.364-34.09L84.17,135.037z M45.632,135.037H25.414l30.562-31.03L45.632,135.037z M58.538,150.037h28.538   v53.792H58.529c0.001-0.062,0.009-0.122,0.009-0.184V150.037z M102.076,150.037h73.83v53.792h-73.83V150.037z M190.906,150.037   h28.538v53.792h-28.538V150.037z M232.35,135.037l-10.013-30.039l30.039,30.039H232.35z M15,150.037h28.538v53.608   c0,0.062,0.008,0.122,0.009,0.184H15V150.037z M262.982,203.83h-28.538v-53.792h28.538V203.83z" fill="#db2b39"/>
</g>
<g>
</g>
<g>
</g>
<g>
</g>
<g>
</g>
<g>
</g>
<g>
</g>
<g>
</g>
<g>
</g>
<g>
</g>
<g>
</g>
<g>
</g>
<g>
</g>
<g>
</g>
<g>
</g>
<g>
</g>
</svg>
