<svg version="1.1" xmlns="http://www.w3.org/2000/svg" xmlns:xlink="http://www.w3.org/1999/xlink" width="14" height="14" viewBox="0 0 14 14">
<path d="M11.664 1.781q-1.289-0.859-2.805-0.859-1.211 0-2.289 0.57t-1.875 1.563q-0.586 0.727-0.934 1.703t-0.379 2.078v0.328q0.031 1.102 0.379 2.078t0.934 1.703q0.797 0.992 1.875 1.563t2.289 0.57q1.516 0 2.805-0.859-0.945 0.844-2.145 1.313t-2.52 0.469q-0.227 0-0.336-0.008-1.367-0.062-2.602-0.641t-2.125-1.508-1.414-2.195-0.523-2.648q0-1.422 0.555-2.719t1.492-2.234 2.234-1.492 2.719-0.555h0.023q1.313 0.008 2.504 0.473t2.137 1.309zM14 7q0 1.5-0.602 2.832t-1.664 2.316q-0.813 0.492-1.734 0.492-1.070 0-1.992-0.656 1.203-0.438 1.98-1.82t0.777-3.164q0-1.773-0.773-3.156t-1.977-1.828q0.93-0.648 1.984-0.648 0.93 0 1.766 0.508 1.055 0.977 1.645 2.305t0.59 2.82z"></path>
</svg>
