<svg version="1.1" xmlns="http://www.w3.org/2000/svg" xmlns:xlink="http://www.w3.org/1999/xlink" width="12" height="14" viewBox="0 0 12 14">
<path d="M10 10q0-0.406-0.297-0.703t-0.703-0.297-0.703 0.297-0.297 0.703 0.297 0.703 0.703 0.297 0.703-0.297 0.297-0.703zM4 4q0-0.406-0.297-0.703t-0.703-0.297-0.703 0.297-0.297 0.703 0.297 0.703 0.703 0.297 0.703-0.297 0.297-0.703zM12 10q0 1.242-0.879 2.121t-2.121 0.879-2.121-0.879-0.879-2.121 0.879-2.121 2.121-0.879 2.121 0.879 0.879 2.121zM11.25 1.5q0 0.156-0.102 0.297l-8.25 11q-0.148 0.203-0.398 0.203h-1.25q-0.203 0-0.352-0.148t-0.148-0.352q0-0.156 0.102-0.297l8.25-11q0.148-0.203 0.398-0.203h1.25q0.203 0 0.352 0.148t0.148 0.352zM6 4q0 1.242-0.879 2.121t-2.121 0.879-2.121-0.879-0.879-2.121 0.879-2.121 2.121-0.879 2.121 0.879 0.879 2.121z"></path>
</svg>
