<svg version="1.1" xmlns="http://www.w3.org/2000/svg" xmlns:xlink="http://www.w3.org/1999/xlink" width="18" height="14" viewBox="0 0 18 14">
<path d="M18 0q-0.539 0.359-0.977 0.719t-0.695 0.633-0.465 0.559-0.293 0.449-0.172 0.348-0.109 0.23q-0.078 0.141-0.277 1.066t-0.379 1.285q-0.117 0.227-0.391 0.473t-0.527 0.395-0.566 0.32-0.375 0.219q-0.367 0.242-1.18 1.805-2.664-0.109-4.922 1.234-0.719 0.414-2.367 1.398 0.367-0.125 0.672-0.242t0.43-0.172l0.117-0.055q0.555-0.211 1.273-0.504t1.043-0.418 0.844-0.27 1.113-0.246q1.453-0.242 3.633 0.055 0.008 0 0.078 0.023 0.086 0.047 0.109 0.133t-0.023 0.172l-1.516 2.695q-0.117 0.227-0.367 0.172-1-0.187-2.766-0.187-1.141 0-3.141 0.348t-3.063 0.363q-0.641 0.008-1.164-0.102t-0.836-0.289-0.477-0.312-0.258-0.266l-0.008-0.008v-0.016q0-0.047 0.047-0.047 1.078 0 2.898-0.43 1.5-2.859 2.926-4.094t2.996-1.234q0.039 0 0.113 0.004t0.297 0.039 0.43 0.094 0.48 0.191 0.492 0.309 0.422 0.461 0.312 0.645l0.797-1.383q0.016-0.031 0.164-0.332t0.348-0.676 0.477-0.855 0.656-1.043 0.785-1.070q0.516-0.641 1-1.105t0.949-0.754 0.723-0.418 0.688-0.309z"></path>
</svg>
