<svg version="1.1" xmlns="http://www.w3.org/2000/svg" xmlns:xlink="http://www.w3.org/1999/xlink" width="14" height="14" viewBox="0 0 14 14">
<path d="M8.984 5.953q0 0.438-0.309 0.742t-0.746 0.305h-1.977v-2.102h1.977q0.438 0 0.746 0.309t0.309 0.746zM10.383 5.953q0-1.016-0.715-1.734t-1.738-0.719h-3.383v7h1.406v-2.102h1.977q1.016 0 1.734-0.715t0.719-1.73zM14 7q0 1.422-0.555 2.719t-1.492 2.234-2.234 1.492-2.719 0.555-2.719-0.555-2.234-1.492-1.492-2.234-0.555-2.719 0.555-2.719 1.492-2.234 2.234-1.492 2.719-0.555 2.719 0.555 2.234 1.492 1.492 2.234 0.555 2.719z"></path>
</svg>
