<svg version="1.1" xmlns="http://www.w3.org/2000/svg" xmlns:xlink="http://www.w3.org/1999/xlink" width="12" height="14" viewBox="0 0 12 14">
<path d="M11.719 12.102q0 0.695-0.492 1.191t-1.195 0.496-1.199-0.496-0.496-1.191q0-0.703 0.496-1.199t1.199-0.496 1.195 0.496 0.492 1.199zM9.898 9.906q-0.898 0.117-1.504 0.801t-0.605 1.605q0 0.578 0.258 1.078-1.141 0.609-2.961 0.609-0.852 0-1.57-0.164t-1.199-0.426-0.863-0.598-0.594-0.664-0.348-0.648-0.184-0.52-0.047-0.309q0-0.148 0.035-0.332t0.145-0.438 0.285-0.453 0.5-0.34 0.738-0.141 0.734 0.137 0.492 0.32 0.277 0.414 0.137 0.383 0.031 0.262q0 0.266-0.18 0.633 0.219 0.211 0.641 0.328t0.727 0.133l0.312 0.008q0.898 0 1.484-0.398t0.586-1.039q0-0.203-0.070-0.379t-0.246-0.348-0.387-0.32-0.578-0.344-0.73-0.371-0.934-0.441q-0.219-0.102-0.336-0.156-0.906-0.43-1.461-0.781t-0.957-0.797-0.563-0.98-0.16-1.27q0-0.609 0.16-1.172t0.516-1.074 0.879-0.891 1.301-0.602 1.73-0.223q0.937 0 1.719 0.203t1.285 0.523 0.855 0.734 0.5 0.824 0.148 0.809q0 0.359-0.117 0.645t-0.285 0.453-0.379 0.281-0.383 0.152-0.305 0.039h-0.312t-0.305-0.039-0.344-0.109-0.32-0.219-0.289-0.359-0.187-0.551-0.078-0.762q-0.117-0.125-0.461-0.199t-0.633-0.082l-0.289-0.008q-0.531 0-0.918 0.242t-0.551 0.547-0.164 0.594q0 0.187 0.039 0.336t0.187 0.359 0.414 0.398 0.758 0.418 1.172 0.457q0.594 0.195 1.082 0.418t0.852 0.434 0.648 0.461 0.473 0.465 0.32 0.488 0.207 0.484 0.113 0.496 0.047 0.484 0.008 0.488z"></path>
</svg>
