<svg version="1.1" xmlns="http://www.w3.org/2000/svg" xmlns:xlink="http://www.w3.org/1999/xlink" width="12" height="14" viewBox="0 0 12 14">
<path d="M9.5 8q1.039 0 1.77 0.73t0.73 1.77-0.73 1.77-1.77 0.73-1.77-0.73-0.73-1.77q0-0.094 0.016-0.266l-2.812-1.406q-0.719 0.672-1.703 0.672-1.039 0-1.77-0.73t-0.73-1.77 0.73-1.77 1.77-0.73q0.984 0 1.703 0.672l2.812-1.406q-0.016-0.172-0.016-0.266 0-1.039 0.73-1.77t1.77-0.73 1.77 0.73 0.73 1.77-0.73 1.77-1.77 0.73q-0.984 0-1.703-0.672l-2.812 1.406q0.016 0.172 0.016 0.266t-0.016 0.266l2.812 1.406q0.719-0.672 1.703-0.672z"></path>
</svg>
