<svg version="1.1" xmlns="http://www.w3.org/2000/svg" xmlns:xlink="http://www.w3.org/1999/xlink" width="14" height="14" viewBox="0 0 14 14">
<path d="M13.727 11l0.273 2.445q0.023 0.219-0.125 0.391-0.148 0.164-0.375 0.164h-13q-0.227 0-0.375-0.164-0.148-0.172-0.125-0.391l0.273-2.445h13.453zM13 4.445l0.672 6.055h-13.344l0.672-6.055q0.023-0.187 0.164-0.316t0.336-0.129h2v1q0 0.414 0.293 0.707t0.707 0.293 0.707-0.293 0.293-0.707v-1h3v1q0 0.414 0.293 0.707t0.707 0.293 0.707-0.293 0.293-0.707v-1h2q0.195 0 0.336 0.129t0.164 0.316zM10 3v2q0 0.203-0.148 0.352t-0.352 0.148-0.352-0.148-0.148-0.352v-2q0-0.828-0.586-1.414t-1.414-0.586-1.414 0.586-0.586 1.414v2q0 0.203-0.148 0.352t-0.352 0.148-0.352-0.148-0.148-0.352v-2q0-1.242 0.879-2.121t2.121-0.879 2.121 0.879 0.879 2.121z"></path>
</svg>
