<svg version="1.1" xmlns="http://www.w3.org/2000/svg" xmlns:xlink="http://www.w3.org/1999/xlink" width="16" height="14" viewBox="0 0 16 14">
<path d="M15 6q0.414 0 0.707 0.293t0.293 0.707-0.293 0.707-0.707 0.293h-0.117l-0.898 5.172q-0.062 0.359-0.344 0.594t-0.641 0.234h-10q-0.359 0-0.641-0.234t-0.344-0.594l-0.898-5.172h-0.117q-0.414 0-0.707-0.293t-0.293-0.707 0.293-0.707 0.707-0.293h14zM3.789 12.25q0.203-0.016 0.34-0.176t0.121-0.363l-0.25-3.25q-0.016-0.203-0.176-0.34t-0.363-0.121-0.34 0.176-0.121 0.363l0.25 3.25q0.016 0.195 0.16 0.328t0.34 0.133h0.039zM7 11.75v-3.25q0-0.203-0.148-0.352t-0.352-0.148-0.352 0.148-0.148 0.352v3.25q0 0.203 0.148 0.352t0.352 0.148 0.352-0.148 0.148-0.352zM10 11.75v-3.25q0-0.203-0.148-0.352t-0.352-0.148-0.352 0.148-0.148 0.352v3.25q0 0.203 0.148 0.352t0.352 0.148 0.352-0.148 0.148-0.352zM12.75 11.789l0.25-3.25q0.016-0.203-0.121-0.363t-0.34-0.176-0.363 0.121-0.176 0.34l-0.25 3.25q-0.016 0.203 0.121 0.363t0.34 0.176h0.039q0.195 0 0.34-0.133t0.16-0.328zM3.719 2.281l-0.727 3.219h-1.031l0.789-3.445q0.148-0.688 0.695-1.121t1.25-0.434h1.305q0-0.203 0.148-0.352t0.352-0.148h3q0.203 0 0.352 0.148t0.148 0.352h1.305q0.703 0 1.25 0.434t0.695 1.121l0.789 3.445h-1.031l-0.727-3.219q-0.086-0.344-0.355-0.563t-0.621-0.219h-1.305q0 0.203-0.148 0.352t-0.352 0.148h-3q-0.203 0-0.352-0.148t-0.148-0.352h-1.305q-0.352 0-0.621 0.219t-0.355 0.563z"></path>
</svg>
