<svg version="1.1" xmlns="http://www.w3.org/2000/svg" xmlns:xlink="http://www.w3.org/1999/xlink" width="13" height="14" viewBox="0 0 13 14">
<path d="M6.492 5.258q0.25 0 0.461 0.141l1.734 1.156q0.477 0.312 0.859 0.758l1.141 1.328q0.312 0.359 0.227 0.828l-0.563 3.227q-0.047 0.25-0.23 0.418t-0.434 0.199l-4.117 0.438-2.75 0.25h-0.070q-0.305 0-0.527-0.219t-0.223-0.531q0-0.289 0.211-0.5t0.508-0.25l2.031-0.25h-3.5q-0.32 0-0.543-0.234t-0.207-0.555q0.016-0.305 0.25-0.508t0.539-0.203l3.453-0.008-4.070-0.5q-0.32-0.039-0.516-0.289t-0.148-0.57q0.047-0.273 0.27-0.449t0.512-0.176h0.078l3.758 0.469-2.742-0.734q-0.297-0.078-0.484-0.324t-0.141-0.535q0.047-0.281 0.258-0.457t0.484-0.176q0.047 0 0.156 0.016l3.5 0.75 1.695 0.289q0.008 0 0.023 0.004t0.023 0.004q0.18 0 0.238-0.18t-0.098-0.281l-1.453-0.977q-0.273-0.18-0.328-0.496t0.141-0.574q0.211-0.297 0.594-0.297zM5.945 6.836l1.453 0.977-1.703-0.289-0.039-0.016-0.281-0.297-1.859-2.047q-0.008-0.008-0.020-0.027t-0.020-0.027q-0.187-0.242-0.145-0.547t0.293-0.5q0.242-0.18 0.531-0.137t0.5 0.262l1.109 1.148-0.031 0.031t-0.039 0.031q-0.25 0.352-0.18 0.773t0.43 0.664zM12.875 3.289l0.117 2.078q0.031 0.57-0.086 1.148l-0.375 1.711q-0.094 0.461-0.523 0.68l-0.828 0.422q0.016-0.484-0.305-0.852l-1.141-1.328q-0.414-0.477-0.914-0.805l-1.734-1.156q-0.266-0.18-0.594-0.18-0.398 0-0.688 0.289l-1.836-2.438q-0.195-0.258-0.141-0.574t0.32-0.496q0.258-0.172 0.559-0.109t0.488 0.312l2.078 2.75-2.047-3.555q-0.164-0.273-0.082-0.586t0.371-0.461q0.273-0.141 0.566-0.047t0.449 0.359l1.883 3.281-1.062-2.633q-0.117-0.273-0.035-0.578t0.348-0.438q0.289-0.148 0.594-0.047t0.438 0.398l1.508 3.242 0.789 1.531q0.062 0.117 0.18 0.137t0.211-0.059 0.086-0.203l-0.094-1.75q-0.016-0.32 0.203-0.555t0.539-0.242q0.305 0 0.523 0.223t0.234 0.527z"></path>
</svg>
