<svg version="1.1" xmlns="http://www.w3.org/2000/svg" xmlns:xlink="http://www.w3.org/1999/xlink" width="13" height="14" viewBox="0 0 13 14">
<path d="M6.625 1q1.047-0.008 1.879 0.535t1.277 1.504q0.211 0.453 0.211 1.398 0 0.367-0.070 1.492 0.109 0.055 0.219 0.055 0.141 0 0.398-0.105t0.398-0.105q0.227 0 0.438 0.141t0.211 0.359q0 0.25-0.246 0.422t-0.539 0.246-0.539 0.227-0.246 0.371q0 0.117 0.094 0.336 0.289 0.641 0.801 1.172t1.129 0.789q0.219 0.094 0.625 0.18 0.219 0.047 0.219 0.273 0 0.547-1.711 0.805-0.055 0.086-0.086 0.305t-0.109 0.363-0.258 0.145q-0.156 0-0.484-0.051t-0.5-0.051q-0.289 0-0.484 0.039-0.25 0.039-0.492 0.176t-0.453 0.297-0.453 0.316-0.594 0.262-0.773 0.105q-0.406 0-0.754-0.105t-0.586-0.262-0.449-0.316-0.453-0.297-0.484-0.176q-0.203-0.039-0.492-0.039-0.187 0-0.512 0.059t-0.457 0.059q-0.195 0-0.273-0.145t-0.109-0.371-0.086-0.312q-1.711-0.258-1.711-0.805 0-0.227 0.219-0.273 0.406-0.086 0.625-0.18 0.609-0.25 1.129-0.789t0.801-1.172q0.094-0.219 0.094-0.336 0-0.219-0.246-0.371t-0.543-0.23-0.543-0.246-0.246-0.41q0-0.211 0.203-0.355t0.43-0.145q0.117 0 0.375 0.102t0.414 0.102q0.141 0 0.25-0.055-0.070-1.109-0.070-1.484 0-0.953 0.211-1.406 0.5-1.070 1.344-1.547t2.062-0.492z"></path>
</svg>
