<svg version="1.1" xmlns="http://www.w3.org/2000/svg" xmlns:xlink="http://www.w3.org/1999/xlink" width="12" height="14" viewBox="0 0 12 14">
<path d="M9.992 8.969q0-0.172-0.172-0.211-0.523-0.117-0.922-0.461t-0.625-0.844q-0.055-0.148-0.055-0.195 0-0.117 0.152-0.203t0.336-0.133 0.336-0.16 0.152-0.285q0-0.148-0.145-0.246t-0.301-0.098q-0.094 0-0.25 0.062t-0.242 0.062q-0.031 0-0.094-0.016 0.039-0.742 0.039-0.891 0-0.617-0.133-0.891-0.281-0.609-0.805-0.949t-1.187-0.34q-1.555 0-2.148 1.289-0.133 0.273-0.133 0.891 0 0.148 0.039 0.891-0.031 0.016-0.109 0.016-0.094 0-0.25-0.059t-0.234-0.059q-0.164 0-0.301 0.094t-0.137 0.25q0 0.164 0.152 0.277t0.336 0.16 0.336 0.133 0.152 0.203q0 0.047-0.055 0.195-0.5 1.078-1.547 1.305-0.172 0.039-0.172 0.211 0 0.359 1.070 0.531 0.016 0.039 0.047 0.203t0.090 0.238 0.184 0.074q0.094 0 0.293-0.035t0.309-0.035q0.273 0 0.523 0.117t0.422 0.254 0.449 0.254 0.598 0.117q0.336 0 0.617-0.117t0.449-0.254 0.418-0.254 0.523-0.117q0.109 0 0.309 0.031t0.301 0.031q0.125 0 0.18-0.078t0.086-0.234 0.047-0.195q1.070-0.172 1.070-0.531zM12 7q0 1.633-0.805 3.012t-2.184 2.184-3.012 0.805-3.012-0.805-2.184-2.184-0.805-3.012 0.805-3.012 2.184-2.184 3.012-0.805 3.012 0.805 2.184 2.184 0.805 3.012z"></path>
</svg>
