<svg version="1.1" xmlns="http://www.w3.org/2000/svg" xmlns:xlink="http://www.w3.org/1999/xlink" width="14" height="14" viewBox="0 0 14 14">
<path d="M6.656 2.414q0 0.227-0.133 0.41t-0.352 0.184-0.352-0.184-0.133-0.41 0.133-0.41 0.352-0.184 0.352 0.184 0.133 0.41zM5.375 13.164v-0.891q0-0.234-0.16-0.402t-0.395-0.168-0.391 0.168-0.156 0.402v0.891q0 0.234 0.16 0.406t0.387 0.172q0.234 0 0.395-0.172t0.16-0.406zM6.719 13.164v-0.891q0-0.234-0.156-0.402t-0.391-0.168-0.395 0.168-0.16 0.402v0.891q0 0.234 0.16 0.406t0.395 0.172q0.227 0 0.387-0.172t0.16-0.406zM8.078 13.164v-0.891q0-0.234-0.16-0.402t-0.395-0.168-0.395 0.168-0.16 0.402v0.891q0 0.234 0.16 0.406t0.395 0.172 0.395-0.172 0.16-0.406zM9.438 13.164v-0.891q0-0.234-0.16-0.402t-0.395-0.168-0.395 0.168-0.16 0.402v0.891q0 0.234 0.16 0.406t0.395 0.172 0.395-0.172 0.16-0.406zM11.531 7.82q-0.656 1.25-1.812 2.027t-2.523 0.777q-0.961 0-1.793-0.402t-1.395-1.070-0.883-1.543-0.32-1.812q0-0.688 0.164-1.359-0.813 1.367-0.813 3.047 0 1.266 0.508 2.438t1.445 1.961q0.234-0.445 0.711-0.445 0.438 0 0.672 0.391 0.25-0.391 0.68-0.391 0.438 0 0.672 0.391 0.25-0.391 0.68-0.391t0.68 0.391q0.234-0.391 0.672-0.391 0.219 0 0.41 0.121t0.293 0.316q0.875-0.734 1.383-1.809t0.57-2.246zM10.359 7.594q0-0.586-0.563-0.586-0.133 0-0.367 0.047-0.742 0.148-1.164 0.148-1.766 0-1.766-1.898 0-0.672 0.234-1.594-0.648 0.992-0.648 2.148 0 1.172 0.695 2.035t1.836 0.863q0.867 0 1.641-0.547 0.102-0.375 0.102-0.617zM6.906 2.445q0-0.391-0.25-0.699t-0.633-0.309-0.633 0.309-0.25 0.699q0 0.398 0.246 0.707t0.637 0.309 0.637-0.309 0.246-0.707zM11.82 5.094q0-0.75-0.293-1.398t-0.883-1.070-1.355-0.422q-0.602 0-1.164 0.273t-0.992 0.734q-0.375 1.242-0.375 2.094 0 0.813 0.355 1.227t1.152 0.414q0.414 0 1.109-0.148 0.281-0.047 0.414-0.047 0.398 0 0.605 0.219t0.207 0.625q0 0.203-0.031 0.359 0.586-0.531 0.918-1.293t0.332-1.566zM14 6.789q0 0.867-0.262 1.949t-0.73 1.598q-0.453 0.5-1.523 1.113t-1.781 0.816l-0.031 0.008v0.891q0 0.336-0.23 0.586t-0.566 0.25q-0.438 0-0.672-0.391-0.25 0.391-0.68 0.391t-0.68-0.391q-0.234 0.391-0.672 0.391-0.43 0-0.68-0.391-0.234 0.391-0.672 0.391-0.367 0-0.586-0.262t-0.219-0.637q-0.703 0.531-1.547 0.531-0.922 0-1.648-0.625 0.422-0.008 0.828-0.156-0.883-0.242-1.422-0.992 0.25 0.055 0.555 0.055 0.695 0 1.281-0.359-1.5-1.5-1.875-2.391-0.187-0.438-0.187-1.25 0-0.445 0.070-0.98t0.246-1.145 0.43-1.102 0.676-0.82 0.937-0.328q0.461 0 0.633 0.406 0.148-0.227 0.328-0.422 0.016-0.023 0.094-0.102t0.102-0.125q0.078-0.117 0.18-0.297t0.195-0.328 0.219-0.305q0.68-0.867 1.652-1.383t2.035-0.516q0.273 0 0.484 0.031 0.461-0.5 1.141-0.5 0.648 0 1.094 0.445 0.039 0.039 0.039 0.094 0 0.039-0.047 0.105t-0.098 0.125-0.125 0.133l-0.082 0.082q0.133 0.047 0.281 0.141t0.148 0.187q0 0.047-0.125 0.195 1.227 1.078 1.539 2.953 0.195-0.234 0.469-0.234 0.352 0 0.781 0.383 0.703 0.625 0.703 2.18z"></path>
</svg>
