<svg version="1.1" xmlns="http://www.w3.org/2000/svg" xmlns:xlink="http://www.w3.org/1999/xlink" width="14" height="14" viewBox="0 0 14 14">
<path d="M10.734 5.133q-0.047-0.203-0.223-0.309t-0.379-0.059q-2.039 0.484-3.133 0.484t-3.133-0.484q-0.203-0.047-0.379 0.059t-0.223 0.309 0.059 0.379 0.309 0.223q1.516 0.359 2.367 0.453-0.016 1.234-0.121 2.102t-0.207 1.215-0.32 0.902l-0.070 0.164q-0.078 0.195 0.008 0.383t0.281 0.266q0.070 0.031 0.18 0.031 0.344 0 0.469-0.32l0.062-0.156q0.422-1.086 0.555-2.023h0.328q0.133 0.937 0.555 2.023l0.062 0.156q0.125 0.32 0.469 0.32 0.109 0 0.18-0.031 0.195-0.078 0.281-0.266t0.008-0.383l-0.070-0.164q-0.219-0.555-0.32-0.902t-0.207-1.215-0.121-2.102q0.852-0.094 2.367-0.453 0.203-0.047 0.309-0.223t0.059-0.379zM8 4q0-0.414-0.293-0.707t-0.707-0.293-0.707 0.293-0.293 0.707 0.293 0.707 0.707 0.293 0.707-0.293 0.293-0.707zM12.5 7q0 1.117-0.434 2.137t-1.172 1.758-1.758 1.172-2.137 0.434-2.137-0.434-1.758-1.172-1.172-1.758-0.434-2.137 0.434-2.137 1.172-1.758 1.758-1.172 2.137-0.434 2.137 0.434 1.758 1.172 1.172 1.758 0.434 2.137zM7 1q-1.219 0-2.328 0.477t-1.914 1.281-1.281 1.914-0.477 2.328 0.477 2.328 1.281 1.914 1.914 1.281 2.328 0.477 2.328-0.477 1.914-1.281 1.281-1.914 0.477-2.328-0.477-2.328-1.281-1.914-1.914-1.281-2.328-0.477zM14 7q0 1.422-0.555 2.719t-1.492 2.234-2.234 1.492-2.719 0.555-2.719-0.555-2.234-1.492-1.492-2.234-0.555-2.719 0.555-2.719 1.492-2.234 2.234-1.492 2.719-0.555 2.719 0.555 2.234 1.492 1.492 2.234 0.555 2.719z"></path>
</svg>
