<svg version="1.1" xmlns="http://www.w3.org/2000/svg" xmlns:xlink="http://www.w3.org/1999/xlink" width="10" height="14" viewBox="0 0 10 14">
<path d="M8.203 8.641q0 1.68-1.148 2.922-1.156 1.258-2.953 1.258-1.812 0-2.953-1.258-1.148-1.242-1.148-2.922 0-1.148 0.531-2.113t1.477-1.535 2.094-0.57q0.75 0 1.422 0.242-0.25 0.484-0.305 0.984-0.516-0.219-1.117-0.219-1.305 0-2.191 0.961t-0.887 2.273q0 1.328 0.879 2.254t2.199 0.926 2.195-0.926 0.875-2.254q0-0.695-0.25-1.297 0.516-0.102 0.961-0.383 0.32 0.766 0.32 1.656zM6.609 7.164q0 1.5-0.621 2.695t-1.863 1.977l-0.109 0.008q-0.227 0-0.484-0.039 0.648-0.25 1.145-0.801t0.777-1.207 0.457-1.477 0.234-1.504 0.059-1.395q0-0.539-0.023-0.805 0.43 1.25 0.43 2.547zM6.18 4.602v0.016q-0.57-1.672-1.609-3.438 0.688 0.461 1.113 1.457t0.496 1.965zM8.086 6.187q-0.648 0-1.25-0.586 1.703-0.937 2.266-1.93 0.148-0.289 0.164-0.438-0.328 0.734-1.090 1.301t-1.598 0.762q-0.273-0.422-0.273-0.883 0-0.289 0.133-0.617t0.336-0.531q0.359-0.344 1.227-0.578 0.461-0.125 0.828-0.457t0.578-0.785q0.578 0.82 0.578 1.977 0 0.852-0.187 1.328-0.25 0.602-0.691 1.020t-1.020 0.418z"></path>
</svg>
