<svg version="1.1" xmlns="http://www.w3.org/2000/svg" xmlns:xlink="http://www.w3.org/1999/xlink" width="12" height="14" viewBox="0 0 12 14">
<path d="M8.203 8.133q0-0.609-0.219-1.148-0.32 0.195-0.664 0.266 0.172 0.391 0.172 0.891 0 0.914-0.602 1.551t-1.508 0.637-1.512-0.637-0.605-1.551q0-0.898 0.609-1.559t1.508-0.66q0.414 0 0.766 0.148 0.031-0.336 0.211-0.68-0.469-0.164-0.977-0.164-1.203 0-2.012 0.848t-0.809 2.059 0.809 2.039 2.012 0.828 2.012-0.832 0.809-2.035zM6.813 5.359q0.016 0.187 0.016 0.555 0 0.492-0.039 0.961t-0.16 1.035-0.316 1.016-0.535 0.828-0.785 0.551q0.164 0.023 0.328 0.023h0.078q1.711-1.086 1.711-3.211 0-0.906-0.297-1.758zM6.813 5.359q-0.031-0.625-0.344-1.34t-0.766-1.020q0.719 1.219 1.109 2.359zM9.43 4.539q0-0.797-0.398-1.359-0.32 0.672-0.969 0.852-0.539 0.148-0.852 0.418t-0.312 0.777q0 0.312 0.187 0.602 0.578-0.133 1.098-0.523t0.746-0.898q-0.031 0.406-0.582 0.871t-1.082 0.762q0.406 0.406 0.859 0.406 0.398 0 0.703-0.289t0.469-0.703q0.133-0.336 0.133-0.914zM12 3.25v7.5q0 0.93-0.66 1.59t-1.59 0.66h-7.5q-0.93 0-1.59-0.66t-0.66-1.59v-7.5q0-0.93 0.66-1.59t1.59-0.66h7.5q0.93 0 1.59 0.66t0.66 1.59z"></path>
</svg>
