<svg version="1.1" xmlns="http://www.w3.org/2000/svg" xmlns:xlink="http://www.w3.org/1999/xlink" width="11" height="14" viewBox="0 0 11 14">
<path d="M4.82 13.195q0-0.086-0.102-0.453t-0.242-0.836-0.156-0.539q-0.008-0.031-0.039-0.207t-0.066-0.281-0.105-0.168q-0.117-0.109-0.398-0.109-0.18 0-0.547 0.043t-0.555 0.043q-0.266 0-0.367-0.086-0.047-0.039-0.086-0.121t-0.059-0.156-0.051-0.187-0.039-0.145q-0.289-1-0.289-1.992t0.289-1.992q0.008-0.031 0.039-0.145t0.051-0.187 0.059-0.156 0.086-0.121q0.102-0.086 0.367-0.086 0.187 0 0.555 0.043t0.547 0.043q0.281 0 0.398-0.109 0.070-0.062 0.105-0.168t0.066-0.281 0.039-0.207q0.016-0.070 0.156-0.539t0.242-0.836 0.102-0.453q0-0.172-0.34-0.41t-0.59-0.332q-0.156-0.062-0.352-0.062-0.266 0-0.766 0.141-0.445 0.133-0.754 0.316t-0.555 0.516-0.359 0.547-0.355 0.738q-0.047 0.094-0.070 0.148-0.383 0.836-0.531 1.688t-0.148 1.906 0.148 1.906 0.531 1.688q0.438 0.953 0.648 1.258 0.492 0.711 1.398 0.992l0.047 0.016q0.5 0.141 0.766 0.141 0.195 0 0.352-0.062 0.25-0.094 0.59-0.332t0.34-0.41zM6.063 6.063q-0.203 0-0.352-0.148t-0.148-0.355 0.148-0.355q0.289-0.289 0.289-0.703 0-0.406-0.289-0.711-0.148-0.148-0.148-0.352t0.148-0.352 0.352-0.148 0.352 0.148q0.586 0.586 0.586 1.414t-0.586 1.414q-0.164 0.148-0.352 0.148zM7.477 7.477q-0.211 0-0.352-0.148-0.148-0.148-0.148-0.352t0.148-0.352q0.875-0.891 0.875-2.125t-0.875-2.125q-0.148-0.148-0.148-0.352t0.148-0.352 0.352-0.148 0.352 0.148q1.172 1.172 1.172 2.828t-1.172 2.828q-0.141 0.148-0.352 0.148zM8.891 8.891q-0.211 0-0.352-0.148-0.148-0.148-0.148-0.352t0.148-0.352q0.703-0.711 1.082-1.625t0.379-1.914-0.379-1.914-1.082-1.625q-0.148-0.148-0.148-0.352t0.148-0.352 0.352-0.148 0.352 0.148q0.852 0.852 1.305 1.945t0.453 2.297-0.453 2.297-1.305 1.945q-0.141 0.148-0.352 0.148z"></path>
</svg>
