<svg version="1.1" xmlns="http://www.w3.org/2000/svg" xmlns:xlink="http://www.w3.org/1999/xlink" width="12" height="14" viewBox="0 0 12 14">
<path d="M4.023 7.117v1h-1.969v-1h1.969zM4.023 5.125v0.992h-1.969v-0.992h1.969zM9.945 9.117v1h-2.664v-1h2.664zM9.945 7.117v1h-5.25v-1h5.25zM9.945 5.125v0.992h-5.25v-0.992h5.25zM11 11.844v-9.687q0-0.062-0.047-0.109t-0.109-0.047h-0.25l-2.953 2-1.641-1.336-1.641 1.336-2.953-2h-0.25q-0.062 0-0.109 0.047t-0.047 0.109v9.687q0 0.062 0.047 0.109t0.109 0.047h9.687q0.062 0 0.109-0.047t0.047-0.109zM4.32 3.172l1.445-1.172h-3.172zM7.68 3.172l1.727-1.172h-3.172zM12 2.156v9.687q0 0.484-0.336 0.82t-0.82 0.336h-9.687q-0.484 0-0.82-0.336t-0.336-0.82v-9.687q0-0.484 0.336-0.82t0.82-0.336h9.687q0.484 0 0.82 0.336t0.336 0.82z"></path>
</svg>
